SplineFontDB: 3.0
FontName: Quantico-BoldItalic
FullName: Quantico-BoldItalic
FamilyName: Quantico
Weight: Bold
Copyright: Copyright (c) 2011 Matthew Desmond (http://www.madtype.com | mattdesmond@gmail.com), with Reserved Font Name "Quantico"
Version: 2.002
ItalicAngle: -12
UnderlinePosition: -50
UnderlineWidth: 50
Ascent: 800
Descent: 200
sfntRevision: 0x00020083
LayerCount: 2
Layer: 0 1 "Back"  1
Layer: 1 1 "Fore"  0
XUID: [1021 288 713564382 9957371]
FSType: 0
OS2Version: 2
OS2_WeightWidthSlopeOnly: 0
OS2_UseTypoMetrics: 1
CreationTime: 1323786013
ModificationTime: 1324066773
PfmFamily: 17
TTFWeight: 700
TTFWidth: 5
LineGap: 0
VLineGap: 0
Panose: 2 0 0 0 0 0 0 0 0 0
OS2TypoAscent: 263
OS2TypoAOffset: 1
OS2TypoDescent: -167
OS2TypoDOffset: 1
OS2TypoLinegap: 0
OS2WinAscent: 0
OS2WinAOffset: 1
OS2WinDescent: 0
OS2WinDOffset: 1
HheadAscent: 0
HheadAOffset: 1
HheadDescent: 0
HheadDOffset: 1
OS2SubXSize: 700
OS2SubYSize: 650
OS2SubXOff: 0
OS2SubYOff: 140
OS2SupXSize: 700
OS2SupYSize: 650
OS2SupXOff: 0
OS2SupYOff: 477
OS2StrikeYSize: 50
OS2StrikeYPos: 250
OS2Vendor: 'MADT'
OS2CodePages: 20000111.00000000
OS2UnicodeRanges: 8000002f.5000004a.00000000.00000000
Lookup: 258 0 0 "'kern' Horizontal Kerning in Latin lookup 0"  {"'kern' Horizontal Kerning in Latin lookup 0 subtable"  } ['kern' ('latn' <'dflt' > ) ]
MarkAttachClasses: 1
DEI: 91125
ShortTable: maxp 16
  1
  0
  268
  62
  7
  29
  4
  2
  0
  1
  1
  0
  64
  0
  2
  1
EndShort
LangName: 1033 "" "" "Bold Italic" "MADtype: Quantico Bold Italic: 2011" "" "Version 2.002" "" "Quantico is a trademark of Matt Desmond." "MADtype" "Matt Desmond" "" "http://www.madtype.com" "http://www.madtype.com" "This Font Software is licensed under the SIL Open Font License, Version 1.1. This license is available with a FAQ at: http://scripts.sil.org/OFL" "http://scripts.sil.org/OFL" 
GaspTable: 1 65535 2
Encoding: UnicodeBmp
UnicodeInterp: none
NameList: Adobe Glyph List
DisplaySize: -36
AntiAlias: 1
FitToEm: 1
WinInfo: 34 34 13

StartChar: exclam
Encoding: 33 33 4
Width: 380
GlyphClass: 2
Flags: W
LayerCount: 2
Fore
SplineSet
95 0 m 1,0,-1
 114 190 l 1,1,-1
 304 190 l 1,2,-1
 285 0 l 1,3,-1
 95 0 l 1,0,-1
160 288 m 1,4,-1
 180 730 l 1,5,-1
 352 730 l 1,6,-1
 280 288 l 1,7,-1
 160 288 l 1,4,-1
EndSplineSet
EndChar

StartChar: quotedbl
Encoding: 34 34 5
Width: 500
GlyphClass: 2
Flags: W
LayerCount: 2
Fore
SplineSet
128 418 m 1,0,-1
 141 730 l 1,1,-1
 291 730 l 1,2,-1
 238 418 l 1,3,-1
 128 418 l 1,0,-1
348 418 m 1,4,-1
 361 730 l 1,5,-1
 511 730 l 1,6,-1
 458 418 l 1,7,-1
 348 418 l 1,4,-1
EndSplineSet
EndChar

StartChar: numbersign
Encoding: 35 35 6
Width: 764
GlyphClass: 2
Flags: W
LayerCount: 2
Fore
SplineSet
562 165 m 1,0,1
 553 105 553 105 527 -19 c 1,2,-1
 403 -19 l 1,3,-1
 439 165 l 1,4,-1
 314 165 l 1,5,-1
 279 -19 l 1,6,-1
 155 -19 l 1,7,-1
 190 165 l 1,8,-1
 72 165 l 1,9,-1
 83 267 l 1,10,-1
 210 267 l 1,11,12
 230 369 230 369 244 441 c 1,13,-1
 101 441 l 1,14,-1
 112 543 l 1,15,-1
 264 543 l 1,16,-1
 298 719 l 1,17,-1
 422 719 l 1,18,-1
 388 543 l 1,19,-1
 512 543 l 1,20,-1
 547 719 l 1,21,-1
 670 719 l 1,22,-1
 636 543 l 1,23,-1
 766 543 l 1,24,-1
 755 441 l 1,25,-1
 616 441 l 1,26,27
 596 339 596 339 582 267 c 1,28,-1
 737 267 l 1,29,-1
 726 165 l 1,30,-1
 562 165 l 1,0,1
368 441 m 1,31,-1
 334 267 l 1,32,-1
 458 267 l 1,33,34
 481 382 481 382 493 441 c 1,35,-1
 368 441 l 1,31,-1
EndSplineSet
EndChar

StartChar: dollar
Encoding: 36 36 7
Width: 655
GlyphClass: 2
Flags: W
LayerCount: 2
Fore
SplineSet
378 -123 m 1,0,-1
 258 -123 l 1,1,-1
 270 -5 l 1,2,-1
 190 -5 l 1,3,-1
 81 62 l 1,4,-1
 95 195 l 1,5,-1
 235 195 l 1,6,-1
 227 115 l 1,7,-1
 442 115 l 1,8,-1
 460 288 l 1,9,-1
 231 288 l 1,10,-1
 122 355 l 1,11,-1
 152 638 l 1,12,-1
 275 705 l 1,13,-1
 345 705 l 1,14,-1
 357 823 l 1,15,-1
 477 823 l 1,16,-1
 465 705 l 1,17,-1
 528 705 l 1,18,-1
 637 638 l 1,19,-1
 623 505 l 1,20,-1
 483 505 l 1,21,-1
 491 585 l 1,22,-1
 286 585 l 1,23,-1
 268 418 l 1,24,-1
 497 418 l 1,25,-1
 606 351 l 1,26,-1
 576 62 l 1,27,-1
 453 -5 l 1,28,-1
 390 -5 l 1,29,-1
 378 -123 l 1,0,-1
EndSplineSet
EndChar

StartChar: percent
Encoding: 37 37 8
Width: 1001
GlyphClass: 2
Flags: W
LayerCount: 2
Fore
SplineSet
484 424 m 1,0,-1
 361 357 l 1,1,-1
 228 357 l 1,2,-1
 119 424 l 1,3,-1
 142 643 l 1,4,-1
 265 710 l 1,5,-1
 398 710 l 1,6,-1
 507 643 l 1,7,-1
 484 424 l 1,0,-1
258 599 m 1,8,-1
 245 468 l 1,9,-1
 368 468 l 1,10,-1
 381 599 l 1,11,-1
 258 599 l 1,8,-1
766 710 m 1,12,-1
 896 710 l 1,13,-1
 307 -10 l 1,14,-1
 177 -10 l 1,15,-1
 766 710 l 1,12,-1
590 276 m 1,16,-1
 713 343 l 1,17,-1
 846 343 l 1,18,-1
 955 276 l 1,19,-1
 931 57 l 1,20,-1
 808 -10 l 1,21,-1
 675 -10 l 1,22,-1
 566 57 l 1,23,-1
 590 276 l 1,16,-1
815 101 m 1,24,-1
 829 232 l 1,25,-1
 706 232 l 1,26,-1
 692 101 l 1,27,-1
 815 101 l 1,24,-1
EndSplineSet
EndChar

StartChar: ampersand
Encoding: 38 38 9
Width: 665
GlyphClass: 2
Flags: W
LayerCount: 2
Fore
SplineSet
684 422 m 1,0,-1
 671 302 l 1,1,-1
 597 302 l 1,2,-1
 572 62 l 1,3,-1
 449 -5 l 1,4,-1
 200 -5 l 1,5,-1
 91 62 l 1,6,-1
 117 311 l 1,7,-1
 209 361 l 1,8,-1
 210 363 l 1,9,-1
 128 413 l 1,10,-1
 152 638 l 1,11,-1
 275 705 l 1,12,-1
 484 705 l 1,13,-1
 593 638 l 1,14,-1
 578 495 l 1,15,-1
 438 495 l 1,16,-1
 447 585 l 1,17,-1
 286 585 l 1,18,-1
 269 422 l 1,19,-1
 414 422 l 1,20,-1
 401 302 l 1,21,-1
 256 302 l 1,22,-1
 237 115 l 1,23,-1
 438 115 l 1,24,-1
 463 355 l 1,25,-1
 586 422 l 1,26,-1
 684 422 l 1,0,-1
EndSplineSet
EndChar

StartChar: quotesingle
Encoding: 39 39 10
Width: 280
GlyphClass: 2
Flags: W
LayerCount: 2
Fore
SplineSet
128 418 m 1,0,-1
 141 730 l 1,1,-1
 291 730 l 1,2,-1
 238 418 l 1,3,-1
 128 418 l 1,0,-1
EndSplineSet
EndChar

StartChar: parenleft
Encoding: 40 40 11
Width: 383
GlyphClass: 2
Flags: W
LayerCount: 2
Fore
SplineSet
281 630 m 1,0,-1
 204 -100 l 1,1,-1
 317 -100 l 1,2,-1
 306 -200 l 1,3,-1
 179 -200 l 1,4,-1
 71 -133 l 1,5,-1
 154 663 l 1,6,-1
 277 730 l 1,7,-1
 404 730 l 1,8,-1
 394 630 l 1,9,-1
 281 630 l 1,0,-1
EndSplineSet
EndChar

StartChar: parenright
Encoding: 41 41 12
Width: 383
GlyphClass: 2
Flags: W
LayerCount: 2
Fore
SplineSet
157 -100 m 1,0,-1
 234 630 l 1,1,-1
 121 630 l 1,2,-1
 131 730 l 1,3,-1
 258 730 l 1,4,-1
 367 663 l 1,5,-1
 284 -133 l 1,6,-1
 160 -200 l 1,7,-1
 33 -200 l 1,8,-1
 44 -100 l 1,9,-1
 157 -100 l 1,0,-1
EndSplineSet
EndChar

StartChar: asterisk
Encoding: 42 42 13
Width: 649
GlyphClass: 2
Flags: W
LayerCount: 2
Fore
SplineSet
364 376 m 1,0,-1
 363 376 l 1,1,-1
 257 236 l 1,2,-1
 162 310 l 1,3,-1
 282 440 l 1,4,-1
 125 483 l 1,5,-1
 177 604 l 1,6,-1
 327 543 l 1,7,-1
 335 710 l 1,8,-1
 462 710 l 1,9,-1
 436 543 l 1,10,-1
 598 604 l 1,11,-1
 624 483 l 1,12,-1
 459 440 l 1,13,-1
 551 310 l 1,14,-1
 440 236 l 1,15,-1
 364 376 l 1,0,-1
EndSplineSet
EndChar

StartChar: plus
Encoding: 43 43 14
Width: 610
GlyphClass: 2
Flags: W
LayerCount: 2
Fore
SplineSet
79 327 m 1,0,-1
 272 327 l 1,1,-1
 292 520 l 1,2,-1
 426 520 l 1,3,-1
 406 327 l 1,4,-1
 599 327 l 1,5,-1
 585 193 l 1,6,-1
 392 193 l 1,7,-1
 372 0 l 1,8,-1
 238 0 l 1,9,-1
 258 193 l 1,10,-1
 65 193 l 1,11,-1
 79 327 l 1,0,-1
EndSplineSet
EndChar

StartChar: comma
Encoding: 44 44 15
Width: 380
GlyphClass: 2
Flags: W
LayerCount: 2
Fore
SplineSet
73 -200 m 1,0,-1
 114 190 l 1,1,-1
 304 190 l 1,2,-1
 296 108 l 1,3,-1
 155 -200 l 1,4,-1
 73 -200 l 1,0,-1
EndSplineSet
EndChar

StartChar: hyphen
Encoding: 45 45 16
Width: 448
GlyphClass: 2
Flags: W
LayerCount: 2
Fore
SplineSet
85 198 m 1,0,-1
 99 325 l 1,1,-1
 417 325 l 1,2,-1
 403 198 l 1,3,-1
 85 198 l 1,0,-1
EndSplineSet
EndChar

StartChar: period
Encoding: 46 46 17
Width: 380
GlyphClass: 2
Flags: W
LayerCount: 2
Fore
SplineSet
95 0 m 1,0,-1
 114 190 l 1,1,-1
 304 190 l 1,2,-1
 285 0 l 1,3,-1
 95 0 l 1,0,-1
EndSplineSet
EndChar

StartChar: slash
Encoding: 47 47 18
Width: 416
GlyphClass: 2
Flags: W
LayerCount: 2
Fore
SplineSet
22 -20 m 1,0,-1
 336 720 l 1,1,-1
 466 720 l 1,2,-1
 152 -20 l 1,3,-1
 22 -20 l 1,0,-1
EndSplineSet
EndChar

StartChar: zero
Encoding: 48 48 19
Width: 675
GlyphClass: 2
Flags: W
LayerCount: 2
Fore
SplineSet
596 62 m 1,0,-1
 473 -5 l 1,1,-1
 200 -5 l 1,2,-1
 91 62 l 1,3,-1
 152 638 l 1,4,-1
 275 705 l 1,5,-1
 548 705 l 1,6,-1
 657 638 l 1,7,-1
 596 62 l 1,0,-1
286 585 m 1,8,-1
 237 115 l 1,9,-1
 462 115 l 1,10,-1
 511 585 l 1,11,-1
 286 585 l 1,8,-1
EndSplineSet
EndChar

StartChar: one
Encoding: 49 49 20
Width: 580
GlyphClass: 2
Flags: W
LayerCount: 2
Fore
SplineSet
133 466 m 1,0,-1
 147 597 l 1,1,-1
 338 700 l 1,2,-1
 458 700 l 1,3,-1
 397 120 l 1,4,-1
 557 120 l 1,5,-1
 545 0 l 1,6,-1
 85 0 l 1,7,-1
 97 120 l 1,8,-1
 257 120 l 1,9,-1
 303 558 l 1,10,-1
 133 466 l 1,0,-1
EndSplineSet
EndChar

StartChar: two
Encoding: 50 50 21
Width: 640
GlyphClass: 2
Flags: W
LayerCount: 2
Fore
SplineSet
237 120 m 1,0,-1
 567 120 l 1,1,-1
 555 0 l 1,2,-1
 85 0 l 1,3,-1
 119 329 l 1,4,-1
 242 396 l 1,5,-1
 456 396 l 1,6,-1
 475 580 l 1,7,-1
 285 580 l 1,8,-1
 276 490 l 1,9,-1
 136 490 l 1,10,-1
 151 633 l 1,11,-1
 274 700 l 1,12,-1
 512 700 l 1,13,-1
 621 633 l 1,14,-1
 591 343 l 1,15,-1
 468 276 l 1,16,-1
 254 276 l 1,17,-1
 237 120 l 1,0,-1
EndSplineSet
EndChar

StartChar: three
Encoding: 51 51 22
Width: 661
GlyphClass: 2
Flags: W
LayerCount: 2
Fore
SplineSet
459 -5 m 1,0,-1
 200 -5 l 1,1,-1
 91 62 l 1,2,-1
 106 205 l 1,3,-1
 246 205 l 1,4,-1
 237 115 l 1,5,-1
 448 115 l 1,6,-1
 467 302 l 1,7,-1
 292 302 l 1,8,-1
 305 422 l 1,9,-1
 480 422 l 1,10,-1
 497 585 l 1,11,-1
 286 585 l 1,12,-1
 277 495 l 1,13,-1
 137 495 l 1,14,-1
 152 638 l 1,15,-1
 275 705 l 1,16,-1
 534 705 l 1,17,-1
 643 638 l 1,18,-1
 619 413 l 1,19,-1
 527 363 l 1,20,-1
 526 361 l 1,21,-1
 608 311 l 1,22,-1
 582 62 l 1,23,-1
 459 -5 l 1,0,-1
EndSplineSet
EndChar

StartChar: four
Encoding: 52 52 23
Width: 636
GlyphClass: 2
Flags: W
LayerCount: 2
Fore
SplineSet
521 155 m 1,0,-1
 505 0 l 1,1,-1
 367 0 l 1,2,-1
 383 155 l 1,3,-1
 51 155 l 1,4,-1
 61 255 l 1,5,-1
 455 700 l 1,6,-1
 578 700 l 1,7,-1
 533 268 l 1,8,-1
 619 268 l 1,9,-1
 607 155 l 1,10,-1
 521 155 l 1,0,-1
218 268 m 1,11,-1
 395 268 l 1,12,-1
 418 494 l 1,13,-1
 416 494 l 1,14,-1
 218 270 l 1,15,-1
 218 268 l 1,11,-1
EndSplineSet
EndChar

StartChar: five
Encoding: 53 53 24
Width: 655
GlyphClass: 2
Flags: W
LayerCount: 2
Fore
SplineSet
305 580 m 1,0,-1
 291 446 l 1,1,-1
 500 446 l 1,2,-1
 609 379 l 1,3,-1
 576 62 l 1,4,-1
 453 -5 l 1,5,-1
 200 -5 l 1,6,-1
 91 62 l 1,7,-1
 106 205 l 1,8,-1
 246 205 l 1,9,-1
 237 115 l 1,10,-1
 442 115 l 1,11,-1
 464 326 l 1,12,-1
 139 326 l 1,13,-1
 178 700 l 1,14,-1
 633 700 l 1,15,-1
 620 580 l 1,16,-1
 305 580 l 1,0,-1
EndSplineSet
EndChar

StartChar: six
Encoding: 54 54 25
Width: 645
GlyphClass: 2
Flags: W
LayerCount: 2
Fore
SplineSet
286 585 m 1,0,-1
 265 384 l 1,1,-1
 340 425 l 1,2,-1
 488 425 l 1,3,-1
 597 358 l 1,4,-1
 566 62 l 1,5,-1
 443 -5 l 1,6,-1
 200 -5 l 1,7,-1
 91 62 l 1,8,-1
 152 638 l 1,9,-1
 275 705 l 1,10,-1
 518 705 l 1,11,-1
 627 638 l 1,12,-1
 612 495 l 1,13,-1
 472 495 l 1,14,-1
 481 585 l 1,15,-1
 286 585 l 1,0,-1
257 305 m 1,16,-1
 237 115 l 1,17,-1
 432 115 l 1,18,-1
 452 305 l 1,19,-1
 257 305 l 1,16,-1
EndSplineSet
EndChar

StartChar: seven
Encoding: 55 55 26
Width: 625
GlyphClass: 2
Flags: W
LayerCount: 2
Fore
SplineSet
298 0 m 1,0,-1
 151 0 l 1,1,-1
 480 578 l 1,2,-1
 480 580 l 1,3,-1
 255 580 l 1,4,-1
 246 490 l 1,5,-1
 106 490 l 1,6,-1
 128 700 l 1,7,-1
 653 700 l 1,8,-1
 644 610 l 1,9,-1
 298 0 l 1,0,-1
EndSplineSet
EndChar

StartChar: eight
Encoding: 56 56 27
Width: 655
GlyphClass: 2
Flags: W
LayerCount: 2
Fore
SplineSet
237 115 m 1,0,-1
 442 115 l 1,1,-1
 461 302 l 1,2,-1
 256 302 l 1,3,-1
 237 115 l 1,0,-1
269 422 m 1,4,-1
 474 422 l 1,5,-1
 491 585 l 1,6,-1
 286 585 l 1,7,-1
 269 422 l 1,4,-1
453 -5 m 1,8,-1
 184 -5 l 1,9,-1
 91 62 l 1,10,-1
 117 311 l 1,11,-1
 209 361 l 1,12,-1
 210 363 l 1,13,-1
 128 413 l 1,14,-1
 152 638 l 1,15,-1
 275 705 l 1,16,-1
 528 705 l 1,17,-1
 637 638 l 1,18,-1
 613 413 l 1,19,-1
 521 363 l 1,20,-1
 520 361 l 1,21,-1
 602 311 l 1,22,-1
 576 62 l 1,23,-1
 453 -5 l 1,8,-1
EndSplineSet
EndChar

StartChar: nine
Encoding: 57 57 28
Width: 645
GlyphClass: 2
Flags: W
LayerCount: 2
Fore
SplineSet
432 115 m 1,0,-1
 453 316 l 1,1,-1
 377 275 l 1,2,-1
 229 275 l 1,3,-1
 120 342 l 1,4,-1
 152 638 l 1,5,-1
 275 705 l 1,6,-1
 518 705 l 1,7,-1
 627 638 l 1,8,-1
 566 62 l 1,9,-1
 443 -5 l 1,10,-1
 200 -5 l 1,11,-1
 91 62 l 1,12,-1
 106 205 l 1,13,-1
 246 205 l 1,14,-1
 237 115 l 1,15,-1
 432 115 l 1,0,-1
461 395 m 1,16,-1
 481 585 l 1,17,-1
 286 585 l 1,18,-1
 266 395 l 1,19,-1
 461 395 l 1,16,-1
EndSplineSet
EndChar

StartChar: colon
Encoding: 58 58 29
Width: 380
GlyphClass: 2
Flags: W
LayerCount: 2
Fore
SplineSet
95 0 m 1,0,-1
 114 190 l 1,1,-1
 304 190 l 1,2,-1
 285 0 l 1,3,-1
 95 0 l 1,0,-1
129 330 m 1,4,-1
 149 520 l 1,5,-1
 339 520 l 1,6,-1
 319 330 l 1,7,-1
 129 330 l 1,4,-1
EndSplineSet
EndChar

StartChar: semicolon
Encoding: 59 59 30
Width: 380
GlyphClass: 2
Flags: W
LayerCount: 2
Fore
SplineSet
73 -200 m 1,0,-1
 114 190 l 1,1,-1
 304 190 l 1,2,-1
 296 108 l 1,3,-1
 155 -200 l 1,4,-1
 73 -200 l 1,0,-1
129 330 m 1,5,-1
 149 520 l 1,6,-1
 339 520 l 1,7,-1
 319 330 l 1,8,-1
 129 330 l 1,5,-1
EndSplineSet
EndChar

StartChar: less
Encoding: 60 60 31
Width: 660
GlyphClass: 2
Flags: W
LayerCount: 2
Fore
SplineSet
627 501 m 1,0,-1
 613 367 l 1,1,-1
 246 251 l 1,2,-1
 246 249 l 1,3,-1
 588 133 l 1,4,-1
 574 -1 l 1,5,-1
 73 179 l 1,6,-1
 88 321 l 1,7,-1
 627 501 l 1,0,-1
EndSplineSet
EndChar

StartChar: equal
Encoding: 61 61 32
Width: 690
GlyphClass: 2
Flags: W
LayerCount: 2
Fore
SplineSet
625 198 m 1,0,-1
 612 74 l 1,1,-1
 92 74 l 1,2,-1
 105 198 l 1,3,-1
 625 198 l 1,0,-1
649 426 m 1,4,-1
 636 302 l 1,5,-1
 116 302 l 1,6,-1
 129 426 l 1,7,-1
 649 426 l 1,4,-1
EndSplineSet
EndChar

StartChar: greater
Encoding: 62 62 33
Width: 660
GlyphClass: 2
Flags: W
LayerCount: 2
Fore
SplineSet
123 367 m 1,0,-1
 137 501 l 1,1,-1
 638 321 l 1,2,-1
 623 179 l 1,3,-1
 84 -1 l 1,4,-1
 98 133 l 1,5,-1
 466 249 l 1,6,-1
 466 251 l 1,7,-1
 123 367 l 1,0,-1
EndSplineSet
EndChar

StartChar: question
Encoding: 63 63 34
Width: 590
GlyphClass: 2
Flags: W
LayerCount: 2
Fore
SplineSet
356 376 m 1,0,-1
 338 288 l 1,1,-1
 228 288 l 1,2,-1
 233 429 l 1,3,-1
 356 496 l 1,4,-1
 417 496 l 1,5,-1
 429 610 l 1,6,-1
 289 610 l 1,7,-1
 279 520 l 1,8,-1
 139 520 l 1,9,-1
 154 663 l 1,10,-1
 277 730 l 1,11,-1
 465 730 l 1,12,-1
 574 663 l 1,13,-1
 551 443 l 1,14,-1
 428 376 l 1,15,-1
 356 376 l 1,0,-1
158 0 m 1,16,-1
 177 190 l 1,17,-1
 367 190 l 1,18,-1
 348 0 l 1,19,-1
 158 0 l 1,16,-1
EndSplineSet
EndChar

StartChar: at
Encoding: 64 64 35
Width: 1020
GlyphClass: 2
Flags: W
LayerCount: 2
Fore
SplineSet
804 -141 m 1,0,-1
 186 -141 l 1,1,-1
 77 -74 l 1,2,-1
 152 638 l 1,3,-1
 275 705 l 1,4,-1
 893 705 l 1,5,-1
 1002 638 l 1,6,-1
 945 104 l 1,7,-1
 822 37 l 1,8,-1
 612 37 l 1,9,-1
 551 78 l 1,10,-1
 470 37 l 1,11,-1
 389 37 l 1,12,-1
 287 104 l 1,13,-1
 365 470 l 1,14,-1
 495 537 l 1,15,-1
 576 537 l 1,16,-1
 638 496 l 1,17,-1
 718 537 l 1,18,-1
 784 537 l 1,19,-1
 702 147 l 1,20,-1
 820 147 l 1,21,-1
 867 595 l 1,22,-1
 277 595 l 1,23,-1
 211 -31 l 1,24,-1
 815 -31 l 1,25,-1
 804 -141 l 1,0,-1
491 420 m 1,26,-1
 436 154 l 1,27,-1
 567 154 l 1,28,-1
 622 420 l 1,29,-1
 491 420 l 1,26,-1
EndSplineSet
EndChar

StartChar: A
Encoding: 65 65 36
Width: 674
GlyphClass: 2
Flags: W
LayerCount: 2
Fore
SplineSet
482 700 m 1,0,-1
 659 0 l 1,1,-1
 521 0 l 1,2,-1
 483 151 l 1,3,-1
 221 151 l 1,4,-1
 153 0 l 1,5,-1
 15 0 l 1,6,-1
 338 700 l 1,7,-1
 482 700 l 1,0,-1
391 524 m 1,8,-1
 276 271 l 1,9,-1
 453 271 l 1,10,-1
 393 524 l 1,11,-1
 391 524 l 1,8,-1
EndSplineSet
EndChar

StartChar: B
Encoding: 66 66 37
Width: 665
GlyphClass: 2
Flags: W
LayerCount: 2
Fore
SplineSet
623 413 m 1,0,-1
 531 363 l 1,1,-1
 530 361 l 1,2,-1
 612 311 l 1,3,-1
 587 67 l 1,4,-1
 464 0 l 1,5,-1
 85 0 l 1,6,-1
 158 700 l 1,7,-1
 537 700 l 1,8,-1
 646 633 l 1,9,-1
 623 413 l 1,0,-1
256 302 m 1,10,-1
 237 120 l 1,11,-1
 452 120 l 1,12,-1
 471 302 l 1,13,-1
 256 302 l 1,10,-1
285 580 m 1,14,-1
 269 422 l 1,15,-1
 484 422 l 1,16,-1
 500 580 l 1,17,-1
 285 580 l 1,14,-1
EndSplineSet
EndChar

StartChar: C
Encoding: 67 67 38
Width: 675
GlyphClass: 2
Flags: W
LayerCount: 2
Fore
SplineSet
481 205 m 1,0,-1
 621 205 l 1,1,-1
 606 62 l 1,2,-1
 483 -5 l 1,3,-1
 200 -5 l 1,4,-1
 91 62 l 1,5,-1
 152 638 l 1,6,-1
 275 705 l 1,7,-1
 558 705 l 1,8,-1
 667 638 l 1,9,-1
 652 495 l 1,10,-1
 512 495 l 1,11,-1
 521 585 l 1,12,-1
 286 585 l 1,13,-1
 237 115 l 1,14,-1
 472 115 l 1,15,-1
 481 205 l 1,0,-1
EndSplineSet
EndChar

StartChar: D
Encoding: 68 68 39
Width: 715
GlyphClass: 2
Flags: W
LayerCount: 2
Fore
SplineSet
637 67 m 1,0,-1
 514 0 l 1,1,-1
 85 0 l 1,2,-1
 158 700 l 1,3,-1
 587 700 l 1,4,-1
 696 633 l 1,5,-1
 637 67 l 1,0,-1
285 580 m 1,6,-1
 237 120 l 1,7,-1
 502 120 l 1,8,-1
 550 580 l 1,9,-1
 285 580 l 1,6,-1
EndSplineSet
EndChar

StartChar: E
Encoding: 69 69 40
Width: 549
GlyphClass: 2
Flags: W
LayerCount: 2
Fore
SplineSet
256 300 m 1,0,-1
 237 120 l 1,1,-1
 516 120 l 1,2,-1
 504 0 l 1,3,-1
 85 0 l 1,4,-1
 158 700 l 1,5,-1
 577 700 l 1,6,-1
 564 580 l 1,7,-1
 285 580 l 1,8,-1
 269 420 l 1,9,-1
 488 420 l 1,10,-1
 475 300 l 1,11,-1
 256 300 l 1,0,-1
EndSplineSet
EndChar

StartChar: F
Encoding: 70 70 41
Width: 539
GlyphClass: 2
Flags: W
LayerCount: 2
Fore
SplineSet
256 300 m 1,0,-1
 225 0 l 1,1,-1
 85 0 l 1,2,-1
 158 700 l 1,3,-1
 587 700 l 1,4,-1
 574 580 l 1,5,-1
 285 580 l 1,6,-1
 269 420 l 1,7,-1
 498 420 l 1,8,-1
 485 300 l 1,9,-1
 256 300 l 1,0,-1
EndSplineSet
EndChar

StartChar: G
Encoding: 71 71 42
Width: 665
GlyphClass: 2
Flags: W
LayerCount: 2
Fore
SplineSet
360 245 m 1,0,-1
 373 365 l 1,1,-1
 628 365 l 1,2,-1
 596 62 l 1,3,-1
 473 -5 l 1,4,-1
 190 -5 l 1,5,-1
 81 62 l 1,6,-1
 142 638 l 1,7,-1
 265 705 l 1,8,-1
 548 705 l 1,9,-1
 657 638 l 1,10,-1
 642 495 l 1,11,-1
 502 495 l 1,12,-1
 511 585 l 1,13,-1
 276 585 l 1,14,-1
 227 115 l 1,15,-1
 462 115 l 1,16,-1
 475 245 l 1,17,-1
 360 245 l 1,0,-1
EndSplineSet
EndChar

StartChar: H
Encoding: 72 72 43
Width: 725
GlyphClass: 2
Flags: W
LayerCount: 2
Fore
SplineSet
256 300 m 1,0,-1
 225 0 l 1,1,-1
 85 0 l 1,2,-1
 158 700 l 1,3,-1
 298 700 l 1,4,-1
 269 420 l 1,5,-1
 544 420 l 1,6,-1
 573 700 l 1,7,-1
 713 700 l 1,8,-1
 640 0 l 1,9,-1
 500 0 l 1,10,-1
 531 300 l 1,11,-1
 256 300 l 1,0,-1
EndSplineSet
EndChar

StartChar: I
Encoding: 73 73 44
Width: 310
GlyphClass: 2
Flags: W
LayerCount: 2
Fore
SplineSet
85 0 m 1,0,-1
 158 700 l 1,1,-1
 298 700 l 1,2,-1
 225 0 l 1,3,-1
 85 0 l 1,0,-1
EndSplineSet
EndChar

StartChar: J
Encoding: 74 74 45
Width: 545
GlyphClass: 2
Flags: W
LayerCount: 2
Fore
SplineSet
332 115 m 1,0,-1
 393 700 l 1,1,-1
 533 700 l 1,2,-1
 466 62 l 1,3,-1
 343 -5 l 1,4,-1
 130 -5 l 1,5,-1
 21 62 l 1,6,-1
 41 255 l 1,7,-1
 181 255 l 1,8,-1
 167 115 l 1,9,-1
 332 115 l 1,0,-1
EndSplineSet
EndChar

StartChar: K
Encoding: 75 75 46
Width: 690
GlyphClass: 2
Flags: W
LayerCount: 2
Fore
SplineSet
85 0 m 1,0,-1
 158 700 l 1,1,-1
 298 700 l 1,2,-1
 265 385 l 1,3,-1
 267 385 l 1,4,-1
 561 700 l 1,5,-1
 727 700 l 1,6,-1
 417 372 l 1,7,-1
 685 0 l 1,8,-1
 517 0 l 1,9,-1
 322 272 l 1,10,-1
 245 191 l 1,11,-1
 225 0 l 1,12,-1
 85 0 l 1,0,-1
EndSplineSet
EndChar

StartChar: L
Encoding: 76 76 47
Width: 489
GlyphClass: 2
Flags: W
LayerCount: 2
Fore
SplineSet
85 0 m 1,0,-1
 158 700 l 1,1,-1
 298 700 l 1,2,-1
 237 120 l 1,3,-1
 476 120 l 1,4,-1
 464 0 l 1,5,-1
 85 0 l 1,0,-1
EndSplineSet
EndChar

StartChar: M
Encoding: 77 77 48
Width: 894
GlyphClass: 2
Flags: W
LayerCount: 2
Fore
SplineSet
674 0 m 1,0,-1
 722 462 l 1,1,-1
 720 462 l 1,2,-1
 514 0 l 1,3,-1
 381 0 l 1,4,-1
 271 468 l 1,5,-1
 269 468 l 1,6,-1
 220 0 l 1,7,-1
 85 0 l 1,8,-1
 158 700 l 1,9,-1
 344 700 l 1,10,-1
 466 185 l 1,11,-1
 468 185 l 1,12,-1
 697 700 l 1,13,-1
 882 700 l 1,14,-1
 809 0 l 1,15,-1
 674 0 l 1,0,-1
EndSplineSet
EndChar

StartChar: N
Encoding: 78 78 49
Width: 745
GlyphClass: 2
Flags: W
LayerCount: 2
Fore
SplineSet
272 453 m 1,0,-1
 225 0 l 1,1,-1
 85 0 l 1,2,-1
 158 700 l 1,3,-1
 289 700 l 1,4,-1
 543 247 l 1,5,-1
 545 247 l 1,6,-1
 593 700 l 1,7,-1
 733 700 l 1,8,-1
 660 0 l 1,9,-1
 529 0 l 1,10,-1
 274 453 l 1,11,-1
 272 453 l 1,0,-1
EndSplineSet
EndChar

StartChar: O
Encoding: 79 79 50
Width: 715
GlyphClass: 2
Flags: W
LayerCount: 2
Fore
SplineSet
636 62 m 1,0,-1
 513 -5 l 1,1,-1
 200 -5 l 1,2,-1
 91 62 l 1,3,-1
 152 638 l 1,4,-1
 275 705 l 1,5,-1
 588 705 l 1,6,-1
 697 638 l 1,7,-1
 636 62 l 1,0,-1
286 585 m 1,8,-1
 237 115 l 1,9,-1
 502 115 l 1,10,-1
 551 585 l 1,11,-1
 286 585 l 1,8,-1
EndSplineSet
EndChar

StartChar: P
Encoding: 80 80 51
Width: 625
GlyphClass: 2
Flags: W
LayerCount: 2
Fore
SplineSet
85 0 m 1,0,-1
 158 700 l 1,1,-1
 527 700 l 1,2,-1
 636 633 l 1,3,-1
 603 321 l 1,4,-1
 480 254 l 1,5,-1
 251 254 l 1,6,-1
 225 0 l 1,7,-1
 85 0 l 1,0,-1
285 580 m 1,8,-1
 264 374 l 1,9,-1
 469 374 l 1,10,-1
 490 580 l 1,11,-1
 285 580 l 1,8,-1
EndSplineSet
EndChar

StartChar: Q
Encoding: 81 81 52
Width: 715
GlyphClass: 2
Flags: W
LayerCount: 2
Fore
SplineSet
286 585 m 1,0,-1
 237 115 l 1,1,-1
 502 115 l 1,2,-1
 551 585 l 1,3,-1
 286 585 l 1,0,-1
363 -5 m 1,4,-1
 200 -5 l 1,5,-1
 91 62 l 1,6,-1
 152 638 l 1,7,-1
 275 705 l 1,8,-1
 588 705 l 1,9,-1
 697 638 l 1,10,-1
 636 62 l 1,11,-1
 513 -5 l 1,12,-1
 605 -200 l 1,13,-1
 452 -200 l 1,14,-1
 363 -5 l 1,4,-1
EndSplineSet
EndChar

StartChar: R
Encoding: 82 82 53
Width: 665
GlyphClass: 2
Flags: W
LayerCount: 2
Fore
SplineSet
616 0 m 1,0,-1
 462 0 l 1,1,-1
 339 264 l 1,2,-1
 252 264 l 1,3,-1
 225 0 l 1,4,-1
 85 0 l 1,5,-1
 158 700 l 1,6,-1
 537 700 l 1,7,-1
 646 633 l 1,8,-1
 614 331 l 1,9,-1
 491 264 l 1,10,-1
 616 0 l 1,0,-1
285 580 m 1,11,-1
 265 384 l 1,12,-1
 480 384 l 1,13,-1
 500 580 l 1,14,-1
 285 580 l 1,11,-1
EndSplineSet
EndChar

StartChar: S
Encoding: 83 83 54
Width: 655
GlyphClass: 2
Flags: W
LayerCount: 2
Fore
SplineSet
122 355 m 1,0,-1
 152 638 l 1,1,-1
 275 705 l 1,2,-1
 528 705 l 1,3,-1
 637 638 l 1,4,-1
 623 505 l 1,5,-1
 483 505 l 1,6,-1
 491 585 l 1,7,-1
 286 585 l 1,8,-1
 268 418 l 1,9,-1
 497 418 l 1,10,-1
 606 351 l 1,11,-1
 576 62 l 1,12,-1
 453 -5 l 1,13,-1
 190 -5 l 1,14,-1
 81 62 l 1,15,-1
 95 195 l 1,16,-1
 235 195 l 1,17,-1
 227 115 l 1,18,-1
 442 115 l 1,19,-1
 460 288 l 1,20,-1
 231 288 l 1,21,-1
 122 355 l 1,0,-1
EndSplineSet
EndChar

StartChar: T
Encoding: 84 84 55
Width: 568
GlyphClass: 2
Flags: W
LayerCount: 2
Fore
SplineSet
414 580 m 1,0,-1
 354 0 l 1,1,-1
 214 0 l 1,2,-1
 274 580 l 1,3,-1
 85 580 l 1,4,-1
 98 700 l 1,5,-1
 616 700 l 1,6,-1
 603 580 l 1,7,-1
 414 580 l 1,0,-1
EndSplineSet
EndChar

StartChar: U
Encoding: 85 85 56
Width: 715
GlyphClass: 2
Flags: W
LayerCount: 2
Fore
SplineSet
563 700 m 1,0,-1
 703 700 l 1,1,-1
 636 62 l 1,2,-1
 513 -5 l 1,3,-1
 200 -5 l 1,4,-1
 91 62 l 1,5,-1
 158 700 l 1,6,-1
 298 700 l 1,7,-1
 238 125 l 1,8,-1
 503 125 l 1,9,-1
 563 700 l 1,0,-1
EndSplineSet
EndChar

StartChar: V
Encoding: 86 86 57
Width: 684
GlyphClass: 2
Flags: W
LayerCount: 2
Fore
SplineSet
742 700 m 1,0,-1
 419 0 l 1,1,-1
 265 0 l 1,2,-1
 88 700 l 1,3,-1
 230 700 l 1,4,-1
 359 171 l 1,5,-1
 361 171 l 1,6,-1
 600 700 l 1,7,-1
 742 700 l 1,0,-1
EndSplineSet
EndChar

StartChar: W
Encoding: 87 87 58
Width: 960
GlyphClass: 2
Flags: W
LayerCount: 2
Fore
SplineSet
1008 700 m 1,0,-1
 757 0 l 1,1,-1
 607 0 l 1,2,-1
 530 473 l 1,3,-1
 528 473 l 1,4,-1
 353 0 l 1,5,-1
 203 0 l 1,6,-1
 98 700 l 1,7,-1
 234 700 l 1,8,-1
 302 220 l 1,9,-1
 304 220 l 1,10,-1
 482 700 l 1,11,-1
 624 700 l 1,12,-1
 702 222 l 1,13,-1
 704 222 l 1,14,-1
 872 700 l 1,15,-1
 1008 700 l 1,0,-1
EndSplineSet
EndChar

StartChar: X
Encoding: 88 88 59
Width: 661
GlyphClass: 2
Flags: W
LayerCount: 2
Fore
SplineSet
25 0 m 1,0,-1
 288 358 l 1,1,-1
 108 700 l 1,2,-1
 266 700 l 1,3,-1
 380 483 l 1,4,-1
 541 700 l 1,5,-1
 699 700 l 1,6,-1
 446 358 l 1,7,-1
 636 0 l 1,8,-1
 478 0 l 1,9,-1
 354 233 l 1,10,-1
 183 0 l 1,11,-1
 25 0 l 1,0,-1
EndSplineSet
EndChar

StartChar: Y
Encoding: 89 89 60
Width: 621
GlyphClass: 2
Flags: W
LayerCount: 2
Fore
SplineSet
240 0 m 1,0,-1
 271 299 l 1,1,-1
 88 700 l 1,2,-1
 240 700 l 1,3,-1
 355 438 l 1,4,-1
 357 438 l 1,5,-1
 527 700 l 1,6,-1
 679 700 l 1,7,-1
 411 298 l 1,8,-1
 380 0 l 1,9,-1
 240 0 l 1,0,-1
EndSplineSet
EndChar

StartChar: Z
Encoding: 90 90 61
Width: 595
GlyphClass: 2
Flags: W
LayerCount: 2
Fore
SplineSet
125 580 m 1,0,-1
 138 700 l 1,1,-1
 613 700 l 1,2,-1
 604 610 l 1,3,-1
 237 122 l 1,4,-1
 237 120 l 1,5,-1
 552 120 l 1,6,-1
 540 0 l 1,7,-1
 45 0 l 1,8,-1
 54 90 l 1,9,-1
 420 578 l 1,10,-1
 420 580 l 1,11,-1
 125 580 l 1,0,-1
EndSplineSet
EndChar

StartChar: bracketleft
Encoding: 91 91 62
Width: 373
GlyphClass: 2
Flags: W
LayerCount: 2
Fore
SplineSet
281 630 m 1,0,-1
 204 -100 l 1,1,-1
 307 -100 l 1,2,-1
 296 -200 l 1,3,-1
 63 -200 l 1,4,-1
 161 730 l 1,5,-1
 394 730 l 1,6,-1
 384 630 l 1,7,-1
 281 630 l 1,0,-1
EndSplineSet
EndChar

StartChar: backslash
Encoding: 92 92 63
Width: 416
GlyphClass: 2
Flags: W
LayerCount: 2
Fore
SplineSet
230 720 m 1,0,-1
 388 -20 l 1,1,-1
 258 -20 l 1,2,-1
 100 720 l 1,3,-1
 230 720 l 1,0,-1
EndSplineSet
EndChar

StartChar: bracketright
Encoding: 93 93 64
Width: 373
GlyphClass: 2
Flags: W
LayerCount: 2
Fore
SplineSet
147 -100 m 1,0,-1
 224 630 l 1,1,-1
 121 630 l 1,2,-1
 131 730 l 1,3,-1
 364 730 l 1,4,-1
 266 -200 l 1,5,-1
 33 -200 l 1,6,-1
 44 -100 l 1,7,-1
 147 -100 l 1,0,-1
EndSplineSet
EndChar

StartChar: asciicircum
Encoding: 94 94 65
Width: 612
GlyphClass: 2
Flags: W
LayerCount: 2
Fore
SplineSet
231 380 m 1,0,-1
 84 380 l 1,1,-1
 318 700 l 1,2,-1
 440 700 l 1,3,-1
 606 380 l 1,4,-1
 459 380 l 1,5,-1
 367 573 l 1,6,-1
 366 573 l 1,7,-1
 231 380 l 1,0,-1
EndSplineSet
EndChar

StartChar: underscore
Encoding: 95 95 66
Width: 602
GlyphClass: 2
Flags: W
LayerCount: 2
Fore
SplineSet
617 -86 m 1,0,-1
 605 -200 l 1,1,-1
 -46 -200 l 1,2,-1
 -34 -86 l 1,3,-1
 617 -86 l 1,0,-1
EndSplineSet
EndChar

StartChar: grave
Encoding: 96 96 67
Width: 500
GlyphClass: 2
Flags: W
LayerCount: 2
Fore
SplineSet
410 718 m 1,0,-1
 491 590 l 1,1,-1
 371 590 l 1,2,-1
 240 718 l 1,3,-1
 410 718 l 1,0,-1
EndSplineSet
EndChar

StartChar: a
Encoding: 97 97 68
Width: 595
GlyphClass: 2
Flags: W
LayerCount: 2
Fore
SplineSet
394 112 m 1,0,-1
 423 388 l 1,1,-1
 252 388 l 1,2,-1
 223 112 l 1,3,-1
 394 112 l 1,0,-1
573 505 m 1,4,-1
 519 -5 l 1,5,-1
 453 -5 l 1,6,-1
 386 36 l 1,7,-1
 311 -5 l 1,8,-1
 190 -5 l 1,9,-1
 81 62 l 1,10,-1
 121 438 l 1,11,-1
 244 505 l 1,12,-1
 365 505 l 1,13,-1
 431 464 l 1,14,-1
 507 505 l 1,15,-1
 573 505 l 1,4,-1
EndSplineSet
EndChar

StartChar: b
Encoding: 98 98 69
Width: 605
GlyphClass: 2
Flags: W
LayerCount: 2
Fore
SplineSet
336 505 m 1,0,-1
 467 505 l 1,1,-1
 576 438 l 1,2,-1
 536 62 l 1,3,-1
 413 -5 l 1,4,-1
 282 -5 l 1,5,-1
 215 36 l 1,6,-1
 140 -5 l 1,7,-1
 74 -5 l 1,8,-1
 151 730 l 1,9,-1
 288 730 l 1,10,-1
 260 464 l 1,11,-1
 336 505 l 1,0,-1
252 388 m 1,12,-1
 223 112 l 1,13,-1
 404 112 l 1,14,-1
 433 388 l 1,15,-1
 252 388 l 1,12,-1
EndSplineSet
EndChar

StartChar: c
Encoding: 99 99 70
Width: 515
GlyphClass: 2
Flags: W
LayerCount: 2
Fore
SplineSet
252 383 m 1,0,-1
 224 117 l 1,1,-1
 472 117 l 1,2,-1
 460 0 l 1,3,-1
 191 0 l 1,4,-1
 82 67 l 1,5,-1
 120 433 l 1,6,-1
 243 500 l 1,7,-1
 512 500 l 1,8,-1
 500 383 l 1,9,-1
 252 383 l 1,0,-1
EndSplineSet
EndChar

StartChar: d
Encoding: 100 100 71
Width: 605
GlyphClass: 2
Flags: W
LayerCount: 2
Fore
SplineSet
244 505 m 1,0,-1
 375 505 l 1,1,-1
 441 464 l 1,2,-1
 469 730 l 1,3,-1
 606 730 l 1,4,-1
 529 -5 l 1,5,-1
 416 -5 l 1,6,-1
 396 36 l 1,7,-1
 321 -5 l 1,8,-1
 190 -5 l 1,9,-1
 81 62 l 1,10,-1
 121 438 l 1,11,-1
 244 505 l 1,0,-1
404 112 m 1,12,-1
 433 388 l 1,13,-1
 252 388 l 1,14,-1
 223 112 l 1,15,-1
 404 112 l 1,12,-1
EndSplineSet
EndChar

StartChar: e
Encoding: 101 101 72
Width: 565
GlyphClass: 2
Flags: W
LayerCount: 2
Fore
SplineSet
502 117 m 1,0,-1
 490 0 l 1,1,-1
 191 0 l 1,2,-1
 82 67 l 1,3,-1
 121 438 l 1,4,-1
 244 505 l 1,5,-1
 427 505 l 1,6,-1
 536 438 l 1,7,-1
 510 199 l 1,8,-1
 232 199 l 1,9,-1
 224 117 l 1,10,-1
 502 117 l 1,0,-1
252 388 m 1,11,-1
 243 302 l 1,12,-1
 384 302 l 1,13,-1
 393 388 l 1,14,-1
 252 388 l 1,11,-1
EndSplineSet
EndChar

StartChar: f
Encoding: 102 102 73
Width: 409
GlyphClass: 2
Flags: W
LayerCount: 2
Fore
SplineSet
75 383 m 1,0,-1
 87 500 l 1,1,-1
 179 500 l 1,2,-1
 196 663 l 1,3,-1
 319 730 l 1,4,-1
 450 730 l 1,5,-1
 438 613 l 1,6,-1
 328 613 l 1,7,-1
 316 500 l 1,8,-1
 426 500 l 1,9,-1
 414 383 l 1,10,-1
 304 383 l 1,11,-1
 264 0 l 1,12,-1
 127 0 l 1,13,-1
 167 383 l 1,14,-1
 75 383 l 1,0,-1
EndSplineSet
EndChar

StartChar: g
Encoding: 103 103 74
Width: 605
GlyphClass: 2
Flags: W
LayerCount: 2
Fore
SplineSet
516 -133 m 1,0,-1
 392 -200 l 1,1,-1
 120 -200 l 1,2,-1
 133 -83 l 1,3,-1
 384 -83 l 1,4,-1
 398 56 l 1,5,-1
 323 15 l 1,6,-1
 192 15 l 1,7,-1
 83 82 l 1,8,-1
 121 438 l 1,9,-1
 244 505 l 1,10,-1
 375 505 l 1,11,-1
 441 464 l 1,12,-1
 517 505 l 1,13,-1
 583 505 l 1,14,-1
 516 -133 l 1,0,-1
406 132 m 1,15,-1
 433 388 l 1,16,-1
 252 388 l 1,17,-1
 225 132 l 1,18,-1
 406 132 l 1,15,-1
EndSplineSet
EndChar

StartChar: h
Encoding: 104 104 75
Width: 605
GlyphClass: 2
Flags: W
LayerCount: 2
Fore
SplineSet
212 0 m 1,0,-1
 75 0 l 1,1,-1
 151 730 l 1,2,-1
 288 730 l 1,3,-1
 260 464 l 1,4,-1
 336 505 l 1,5,-1
 467 505 l 1,6,-1
 576 438 l 1,7,-1
 530 0 l 1,8,-1
 393 0 l 1,9,-1
 433 388 l 1,10,-1
 252 388 l 1,11,-1
 212 0 l 1,0,-1
EndSplineSet
EndChar

StartChar: i
Encoding: 105 105 76
Width: 287
GlyphClass: 2
Flags: W
LayerCount: 2
Fore
SplineSet
264 500 m 1,0,-1
 212 0 l 1,1,-1
 75 0 l 1,2,-1
 127 500 l 1,3,-1
 264 500 l 1,0,-1
132 593 m 1,4,-1
 146 730 l 1,5,-1
 293 730 l 1,6,-1
 279 593 l 1,7,-1
 132 593 l 1,4,-1
EndSplineSet
EndChar

StartChar: j
Encoding: 106 106 77
Width: 287
GlyphClass: 2
Flags: W
LayerCount: 2
Fore
SplineSet
132 593 m 1,0,-1
 146 730 l 1,1,-1
 293 730 l 1,2,-1
 279 593 l 1,3,-1
 132 593 l 1,0,-1
264 500 m 1,4,-1
 198 -133 l 1,5,-1
 74 -200 l 1,6,-1
 -46 -200 l 1,7,-1
 -33 -83 l 1,8,-1
 66 -83 l 1,9,-1
 127 500 l 1,10,-1
 264 500 l 1,4,-1
EndSplineSet
EndChar

StartChar: k
Encoding: 107 107 78
Width: 551
GlyphClass: 2
Flags: W
LayerCount: 2
Fore
SplineSet
288 730 m 1,0,-1
 243 299 l 1,1,-1
 245 299 l 1,2,-1
 421 500 l 1,3,-1
 578 500 l 1,4,-1
 376 277 l 1,5,-1
 556 0 l 1,6,-1
 397 0 l 1,7,-1
 285 177 l 1,8,-1
 223 108 l 1,9,-1
 212 0 l 1,10,-1
 75 0 l 1,11,-1
 151 730 l 1,12,-1
 288 730 l 1,0,-1
EndSplineSet
EndChar

StartChar: l
Encoding: 108 108 79
Width: 327
GlyphClass: 2
Flags: W
LayerCount: 2
Fore
SplineSet
191 0 m 1,0,-1
 82 67 l 1,1,-1
 151 730 l 1,2,-1
 288 730 l 1,3,-1
 224 117 l 1,4,-1
 324 117 l 1,5,-1
 312 0 l 1,6,-1
 191 0 l 1,0,-1
EndSplineSet
EndChar

StartChar: m
Encoding: 109 109 80
Width: 853
GlyphClass: 2
Flags: W
LayerCount: 2
Fore
SplineSet
824 438 m 1,0,-1
 778 0 l 1,1,-1
 641 0 l 1,2,-1
 681 388 l 1,3,-1
 535 388 l 1,4,-1
 495 0 l 1,5,-1
 358 0 l 1,6,-1
 398 388 l 1,7,-1
 252 388 l 1,8,-1
 212 0 l 1,9,-1
 75 0 l 1,10,-1
 128 505 l 1,11,-1
 241 505 l 1,12,-1
 260 464 l 1,13,-1
 336 505 l 1,14,-1
 432 505 l 1,15,-1
 519 451 l 1,16,-1
 619 505 l 1,17,-1
 715 505 l 1,18,-1
 824 438 l 1,0,-1
EndSplineSet
EndChar

StartChar: n
Encoding: 110 110 81
Width: 595
GlyphClass: 2
Flags: W
LayerCount: 2
Fore
SplineSet
566 438 m 1,0,-1
 520 0 l 1,1,-1
 383 0 l 1,2,-1
 423 388 l 1,3,-1
 252 388 l 1,4,-1
 212 0 l 1,5,-1
 75 0 l 1,6,-1
 128 505 l 1,7,-1
 241 505 l 1,8,-1
 260 464 l 1,9,-1
 336 505 l 1,10,-1
 457 505 l 1,11,-1
 566 438 l 1,0,-1
EndSplineSet
EndChar

StartChar: o
Encoding: 111 111 82
Width: 595
GlyphClass: 2
Flags: W
LayerCount: 2
Fore
SplineSet
526 62 m 1,0,-1
 403 -5 l 1,1,-1
 190 -5 l 1,2,-1
 81 62 l 1,3,-1
 121 438 l 1,4,-1
 244 505 l 1,5,-1
 457 505 l 1,6,-1
 566 438 l 1,7,-1
 526 62 l 1,0,-1
252 388 m 1,8,-1
 223 112 l 1,9,-1
 394 112 l 1,10,-1
 423 388 l 1,11,-1
 252 388 l 1,8,-1
EndSplineSet
EndChar

StartChar: p
Encoding: 112 112 83
Width: 605
GlyphClass: 2
Flags: W
LayerCount: 2
Fore
SplineSet
413 -5 m 1,0,-1
 282 -5 l 1,1,-1
 215 36 l 1,2,-1
 190 -200 l 1,3,-1
 53 -200 l 1,4,-1
 128 505 l 1,5,-1
 241 505 l 1,6,-1
 260 464 l 1,7,-1
 336 505 l 1,8,-1
 467 505 l 1,9,-1
 576 438 l 1,10,-1
 536 62 l 1,11,-1
 413 -5 l 1,0,-1
252 388 m 1,12,-1
 223 112 l 1,13,-1
 404 112 l 1,14,-1
 433 388 l 1,15,-1
 252 388 l 1,12,-1
EndSplineSet
EndChar

StartChar: q
Encoding: 113 113 84
Width: 605
GlyphClass: 2
Flags: W
LayerCount: 2
Fore
SplineSet
321 -5 m 1,0,-1
 190 -5 l 1,1,-1
 81 62 l 1,2,-1
 121 438 l 1,3,-1
 244 505 l 1,4,-1
 375 505 l 1,5,-1
 441 464 l 1,6,-1
 517 505 l 1,7,-1
 583 505 l 1,8,-1
 508 -200 l 1,9,-1
 371 -200 l 1,10,-1
 396 36 l 1,11,-1
 321 -5 l 1,0,-1
404 112 m 1,12,-1
 433 388 l 1,13,-1
 252 388 l 1,14,-1
 223 112 l 1,15,-1
 404 112 l 1,12,-1
EndSplineSet
EndChar

StartChar: r
Encoding: 114 114 85
Width: 409
GlyphClass: 2
Flags: W
LayerCount: 2
Fore
SplineSet
424 383 m 1,0,-1
 252 383 l 1,1,-1
 212 0 l 1,2,-1
 75 0 l 1,3,-1
 127 500 l 1,4,-1
 240 500 l 1,5,-1
 260 459 l 1,6,-1
 335 500 l 1,7,-1
 436 500 l 1,8,-1
 424 383 l 1,0,-1
EndSplineSet
EndChar

StartChar: s
Encoding: 115 115 86
Width: 546
GlyphClass: 2
Flags: W
LayerCount: 2
Fore
SplineSet
496 246 m 1,0,-1
 478 67 l 1,1,-1
 355 0 l 1,2,-1
 75 0 l 1,3,-1
 87 117 l 1,4,-1
 346 117 l 1,5,-1
 354 194 l 1,6,-1
 211 194 l 1,7,-1
 102 261 l 1,8,-1
 120 433 l 1,9,-1
 243 500 l 1,10,-1
 513 500 l 1,11,-1
 501 383 l 1,12,-1
 252 383 l 1,13,-1
 244 313 l 1,14,-1
 387 313 l 1,15,-1
 496 246 l 1,0,-1
EndSplineSet
EndChar

StartChar: t
Encoding: 116 116 87
Width: 429
GlyphClass: 2
Flags: W
LayerCount: 2
Fore
SplineSet
75 383 m 1,0,-1
 87 500 l 1,1,-1
 179 500 l 1,2,-1
 188 584 l 1,3,-1
 333 663 l 1,4,-1
 316 500 l 1,5,-1
 426 500 l 1,6,-1
 414 383 l 1,7,-1
 304 383 l 1,8,-1
 276 117 l 1,9,-1
 386 117 l 1,10,-1
 374 0 l 1,11,-1
 243 0 l 1,12,-1
 134 67 l 1,13,-1
 167 383 l 1,14,-1
 75 383 l 1,0,-1
EndSplineSet
EndChar

StartChar: u
Encoding: 117 117 88
Width: 595
GlyphClass: 2
Flags: W
LayerCount: 2
Fore
SplineSet
81 62 m 1,0,-1
 127 500 l 1,1,-1
 264 500 l 1,2,-1
 223 112 l 1,3,-1
 394 112 l 1,4,-1
 435 500 l 1,5,-1
 572 500 l 1,6,-1
 519 -5 l 1,7,-1
 406 -5 l 1,8,-1
 386 36 l 1,9,-1
 311 -5 l 1,10,-1
 190 -5 l 1,11,-1
 81 62 l 1,0,-1
EndSplineSet
EndChar

StartChar: v
Encoding: 118 118 89
Width: 537
GlyphClass: 2
Flags: W
LayerCount: 2
Fore
SplineSet
204 500 m 1,0,-1
 285 172 l 1,1,-1
 287 172 l 1,2,-1
 437 500 l 1,3,-1
 574 500 l 1,4,-1
 337 0 l 1,5,-1
 200 0 l 1,6,-1
 67 500 l 1,7,-1
 204 500 l 1,0,-1
EndSplineSet
EndChar

StartChar: w
Encoding: 119 119 90
Width: 768
GlyphClass: 2
Flags: W
LayerCount: 2
Fore
SplineSet
418 316 m 1,0,-1
 416 316 l 1,1,-1
 295 0 l 1,2,-1
 153 0 l 1,3,-1
 77 500 l 1,4,-1
 204 500 l 1,5,-1
 249 181 l 1,6,-1
 251 181 l 1,7,-1
 373 500 l 1,8,-1
 499 500 l 1,9,-1
 555 181 l 1,10,-1
 557 181 l 1,11,-1
 668 500 l 1,12,-1
 795 500 l 1,13,-1
 615 0 l 1,14,-1
 473 0 l 1,15,-1
 418 316 l 1,0,-1
EndSplineSet
EndChar

StartChar: x
Encoding: 120 120 91
Width: 536
GlyphClass: 2
Flags: W
LayerCount: 2
Fore
SplineSet
15 0 m 1,0,-1
 223 255 l 1,1,-1
 73 500 l 1,2,-1
 222 500 l 1,3,-1
 305 359 l 1,4,-1
 418 500 l 1,5,-1
 567 500 l 1,6,-1
 364 255 l 1,7,-1
 521 0 l 1,8,-1
 374 0 l 1,9,-1
 283 150 l 1,10,-1
 162 0 l 1,11,-1
 15 0 l 1,0,-1
EndSplineSet
EndChar

StartChar: y
Encoding: 121 121 92
Width: 545
GlyphClass: 2
Flags: W
LayerCount: 2
Fore
SplineSet
92 -200 m 1,0,-1
 209 35 l 1,1,-1
 67 500 l 1,2,-1
 204 500 l 1,3,-1
 296 206 l 1,4,-1
 298 206 l 1,5,-1
 445 500 l 1,6,-1
 582 500 l 1,7,-1
 227 -200 l 1,8,-1
 92 -200 l 1,0,-1
EndSplineSet
EndChar

StartChar: z
Encoding: 122 122 93
Width: 476
GlyphClass: 2
Flags: W
LayerCount: 2
Fore
SplineSet
45 96 m 1,0,-1
 291 381 l 1,1,-1
 291 383 l 1,2,-1
 85 383 l 1,3,-1
 97 500 l 1,4,-1
 483 500 l 1,5,-1
 473 404 l 1,6,-1
 227 119 l 1,7,-1
 227 117 l 1,8,-1
 443 117 l 1,9,-1
 431 0 l 1,10,-1
 35 0 l 1,11,-1
 45 96 l 1,0,-1
EndSplineSet
EndChar

StartChar: braceleft
Encoding: 123 123 94
Width: 408
GlyphClass: 2
Flags: W
LayerCount: 2
Fore
SplineSet
273 225 m 1,0,-1
 239 -100 l 1,1,-1
 342 -100 l 1,2,-1
 331 -200 l 1,3,-1
 214 -200 l 1,4,-1
 106 -133 l 1,5,-1
 142 215 l 1,6,-1
 57 215 l 1,7,-1
 68 315 l 1,8,-1
 153 315 l 1,9,-1
 189 663 l 1,10,-1
 312 730 l 1,11,-1
 429 730 l 1,12,-1
 419 630 l 1,13,-1
 316 630 l 1,14,-1
 282 305 l 1,15,-1
 210 266 l 1,16,-1
 210 264 l 1,17,-1
 273 225 l 1,0,-1
EndSplineSet
EndChar

StartChar: bar
Encoding: 124 124 95
Width: 360
GlyphClass: 2
Flags: W
LayerCount: 2
Fore
SplineSet
93 -200 m 1,0,-1
 191 730 l 1,1,-1
 321 730 l 1,2,-1
 223 -200 l 1,3,-1
 93 -200 l 1,0,-1
EndSplineSet
EndChar

StartChar: braceright
Encoding: 125 125 96
Width: 408
GlyphClass: 2
Flags: W
LayerCount: 2
Fore
SplineSet
147 -100 m 1,0,-1
 181 225 l 1,1,-1
 252 264 l 1,2,-1
 252 266 l 1,3,-1
 190 305 l 1,4,-1
 224 630 l 1,5,-1
 121 630 l 1,6,-1
 131 730 l 1,7,-1
 248 730 l 1,8,-1
 357 663 l 1,9,-1
 321 315 l 1,10,-1
 406 315 l 1,11,-1
 395 215 l 1,12,-1
 310 215 l 1,13,-1
 274 -133 l 1,14,-1
 150 -200 l 1,15,-1
 33 -200 l 1,16,-1
 44 -100 l 1,17,-1
 147 -100 l 1,0,-1
EndSplineSet
EndChar

StartChar: asciitilde
Encoding: 126 126 97
Width: 672
GlyphClass: 2
Flags: W
LayerCount: 2
Fore
SplineSet
273 255 m 1,0,-1
 198 255 l 1,1,-1
 190 173 l 1,2,-1
 73 173 l 1,3,-1
 87 305 l 1,4,-1
 210 372 l 1,5,-1
 323 372 l 1,6,-1
 455 290 l 1,7,-1
 530 290 l 1,8,-1
 539 372 l 1,9,-1
 656 372 l 1,10,-1
 642 240 l 1,11,-1
 519 173 l 1,12,-1
 406 173 l 1,13,-1
 273 255 l 1,0,-1
EndSplineSet
EndChar

StartChar: exclamdown
Encoding: 161 161 99
Width: 380
GlyphClass: 2
Flags: W
LayerCount: 2
Fore
SplineSet
127 310 m 1,0,-1
 147 500 l 1,1,-1
 337 500 l 1,2,-1
 317 310 l 1,3,-1
 127 310 l 1,0,-1
79 -230 m 1,4,-1
 152 212 l 1,5,-1
 272 212 l 1,6,-1
 251 -230 l 1,7,-1
 79 -230 l 1,4,-1
EndSplineSet
EndChar

StartChar: cent
Encoding: 162 162 100
Width: 525
GlyphClass: 2
Flags: W
LayerCount: 2
Fore
SplineSet
430 500 m 1,0,-1
 522 500 l 1,1,-1
 510 383 l 1,2,-1
 252 383 l 1,3,-1
 224 117 l 1,4,-1
 482 117 l 1,5,-1
 470 0 l 1,6,-1
 378 0 l 1,7,-1
 365 -118 l 1,8,-1
 249 -118 l 1,9,-1
 262 0 l 1,10,-1
 191 0 l 1,11,-1
 82 67 l 1,12,-1
 120 433 l 1,13,-1
 243 500 l 1,14,-1
 314 500 l 1,15,-1
 326 618 l 1,16,-1
 442 618 l 1,17,-1
 430 500 l 1,0,-1
EndSplineSet
EndChar

StartChar: sterling
Encoding: 163 163 101
Width: 652
GlyphClass: 2
Flags: W
LayerCount: 2
Fore
SplineSet
410 380 m 1,0,-1
 400 276 l 1,1,-1
 281 276 l 1,2,-1
 264 120 l 1,3,-1
 479 120 l 1,4,-1
 489 210 l 1,5,-1
 629 210 l 1,6,-1
 614 67 l 1,7,-1
 491 0 l 1,8,-1
 112 0 l 1,9,-1
 141 276 l 1,10,-1
 64 276 l 1,11,-1
 74 380 l 1,12,-1
 151 380 l 1,13,-1
 179 638 l 1,14,-1
 302 705 l 1,15,-1
 515 705 l 1,16,-1
 624 638 l 1,17,-1
 609 495 l 1,18,-1
 469 495 l 1,19,-1
 478 585 l 1,20,-1
 313 585 l 1,21,-1
 291 380 l 1,22,-1
 410 380 l 1,0,-1
EndSplineSet
EndChar

StartChar: yen
Encoding: 165 165 102
Width: 661
GlyphClass: 2
Flags: W
LayerCount: 2
Fore
SplineSet
260 0 m 1,0,-1
 273 128 l 1,1,-1
 75 128 l 1,2,-1
 86 232 l 1,3,-1
 284 232 l 1,4,-1
 290 293 l 1,5,-1
 92 293 l 1,6,-1
 103 397 l 1,7,-1
 246 397 l 1,8,-1
 108 700 l 1,9,-1
 260 700 l 1,10,-1
 375 438 l 1,11,-1
 377 438 l 1,12,-1
 547 700 l 1,13,-1
 699 700 l 1,14,-1
 496 397 l 1,15,-1
 639 397 l 1,16,-1
 628 293 l 1,17,-1
 430 293 l 1,18,-1
 424 232 l 1,19,-1
 622 232 l 1,20,-1
 611 128 l 1,21,-1
 413 128 l 1,22,-1
 400 0 l 1,23,-1
 260 0 l 1,0,-1
EndSplineSet
EndChar

StartChar: brokenbar
Encoding: 166 166 103
Width: 360
GlyphClass: 2
Flags: W
LayerCount: 2
Fore
SplineSet
93 -200 m 1,0,-1
 136 202 l 1,1,-1
 266 202 l 1,2,-1
 223 -200 l 1,3,-1
 93 -200 l 1,0,-1
149 328 m 1,4,-1
 191 730 l 1,5,-1
 321 730 l 1,6,-1
 279 328 l 1,7,-1
 149 328 l 1,4,-1
EndSplineSet
EndChar

StartChar: section
Encoding: 167 167 104
Width: 663
GlyphClass: 2
Flags: W
LayerCount: 2
Fore
SplineSet
438 178 m 1,0,-1
 454 327 l 1,1,-1
 287 327 l 1,2,-1
 271 178 l 1,3,-1
 438 178 l 1,0,-1
148 336 m 1,4,-1
 240 386 l 1,5,-1
 240 388 l 1,6,-1
 159 438 l 1,7,-1
 180 638 l 1,8,-1
 303 705 l 1,9,-1
 536 705 l 1,10,-1
 645 638 l 1,11,-1
 631 505 l 1,12,-1
 491 505 l 1,13,-1
 499 585 l 1,14,-1
 314 585 l 1,15,-1
 299 447 l 1,16,-1
 490 447 l 1,17,-1
 599 380 l 1,18,-1
 577 169 l 1,19,-1
 485 119 l 1,20,-1
 485 117 l 1,21,-1
 567 67 l 1,22,-1
 546 -133 l 1,23,-1
 422 -200 l 1,24,-1
 179 -200 l 1,25,-1
 71 -133 l 1,26,-1
 85 0 l 1,27,-1
 225 0 l 1,28,-1
 216 -80 l 1,29,-1
 411 -80 l 1,30,-1
 426 58 l 1,31,-1
 235 58 l 1,32,-1
 126 125 l 1,33,-1
 148 336 l 1,4,-1
EndSplineSet
EndChar

StartChar: dieresis
Encoding: 168 168 105
Width: 544
GlyphClass: 2
Flags: W
LayerCount: 2
Fore
SplineSet
142 595 m 1,0,-1
 156 730 l 1,1,-1
 291 730 l 1,2,-1
 277 595 l 1,3,-1
 142 595 l 1,0,-1
381 595 m 1,4,-1
 395 730 l 1,5,-1
 530 730 l 1,6,-1
 516 595 l 1,7,-1
 381 595 l 1,4,-1
EndSplineSet
EndChar

StartChar: copyright
Encoding: 169 169 106
Width: 850
GlyphClass: 2
Flags: W
LayerCount: 2
Fore
SplineSet
771 62 m 1,0,-1
 648 -5 l 1,1,-1
 200 -5 l 1,2,-1
 91 62 l 1,3,-1
 152 638 l 1,4,-1
 275 705 l 1,5,-1
 723 705 l 1,6,-1
 832 638 l 1,7,-1
 771 62 l 1,0,-1
268 605 m 1,8,-1
 214 95 l 1,9,-1
 654 95 l 1,10,-1
 708 605 l 1,11,-1
 268 605 l 1,8,-1
511 281 m 1,12,-1
 620 281 l 1,13,-1
 609 177 l 1,14,-1
 532 135 l 1,15,-1
 346 135 l 1,16,-1
 276 177 l 1,17,-1
 312 523 l 1,18,-1
 391 565 l 1,19,-1
 577 565 l 1,20,-1
 645 523 l 1,21,-1
 635 419 l 1,22,-1
 526 419 l 1,23,-1
 531 472 l 1,24,-1
 416 472 l 1,25,-1
 390 228 l 1,26,-1
 505 228 l 1,27,-1
 511 281 l 1,12,-1
EndSplineSet
EndChar

StartChar: ordfeminine
Encoding: 170 170 107
Width: 595
GlyphClass: 2
Flags: W
LayerCount: 2
Fore
SplineSet
75 0 m 1,0,-1
 87 117 l 1,1,-1
 532 117 l 1,2,-1
 520 0 l 1,3,-1
 75 0 l 1,0,-1
415 312 m 1,4,-1
 444 588 l 1,5,-1
 273 588 l 1,6,-1
 244 312 l 1,7,-1
 415 312 l 1,4,-1
594 705 m 1,8,-1
 540 195 l 1,9,-1
 474 195 l 1,10,-1
 407 236 l 1,11,-1
 332 195 l 1,12,-1
 211 195 l 1,13,-1
 102 262 l 1,14,-1
 142 638 l 1,15,-1
 265 705 l 1,16,-1
 386 705 l 1,17,-1
 452 664 l 1,18,-1
 528 705 l 1,19,-1
 594 705 l 1,8,-1
EndSplineSet
EndChar

StartChar: guillemotleft
Encoding: 171 171 108
Width: 690
GlyphClass: 2
Flags: W
LayerCount: 2
Fore
SplineSet
359 137 m 1,0,-1
 345 0 l 1,1,-1
 104 190 l 1,2,-1
 117 312 l 1,3,-1
 397 502 l 1,4,-1
 383 365 l 1,5,-1
 208 252 l 1,6,-1
 208 251 l 1,7,-1
 359 137 l 1,0,-1
619 137 m 1,8,-1
 605 0 l 1,9,-1
 364 190 l 1,10,-1
 377 312 l 1,11,-1
 657 502 l 1,12,-1
 643 365 l 1,13,-1
 468 252 l 1,14,-1
 468 251 l 1,15,-1
 619 137 l 1,8,-1
EndSplineSet
EndChar

StartChar: registered
Encoding: 174 174 109
Width: 850
GlyphClass: 2
Flags: W
LayerCount: 2
Fore
SplineSet
615 138 m 1,0,-1
 496 138 l 1,1,-1
 428 283 l 1,2,-1
 405 283 l 1,3,-1
 390 138 l 1,4,-1
 281 138 l 1,5,-1
 326 562 l 1,6,-1
 567 562 l 1,7,-1
 636 520 l 1,8,-1
 616 326 l 1,9,-1
 544 286 l 1,10,-1
 615 138 l 1,0,-1
425 469 m 1,11,-1
 415 376 l 1,12,-1
 512 376 l 1,13,-1
 522 469 l 1,14,-1
 425 469 l 1,11,-1
771 62 m 1,15,-1
 648 -5 l 1,16,-1
 200 -5 l 1,17,-1
 91 62 l 1,18,-1
 152 638 l 1,19,-1
 275 705 l 1,20,-1
 723 705 l 1,21,-1
 832 638 l 1,22,-1
 771 62 l 1,15,-1
268 605 m 1,23,-1
 214 95 l 1,24,-1
 654 95 l 1,25,-1
 708 605 l 1,26,-1
 268 605 l 1,23,-1
EndSplineSet
EndChar

StartChar: macron
Encoding: 175 175 110
Width: 599
GlyphClass: 2
Flags: W
LayerCount: 2
Fore
SplineSet
207 600 m 1,0,-1
 217 697 l 1,1,-1
 528 697 l 1,2,-1
 518 600 l 1,3,-1
 207 600 l 1,0,-1
EndSplineSet
EndChar

StartChar: degree
Encoding: 176 176 111
Width: 495
GlyphClass: 2
Flags: W
LayerCount: 2
Fore
SplineSet
474 424 m 1,0,-1
 351 357 l 1,1,-1
 218 357 l 1,2,-1
 109 424 l 1,3,-1
 132 643 l 1,4,-1
 255 710 l 1,5,-1
 388 710 l 1,6,-1
 497 643 l 1,7,-1
 474 424 l 1,0,-1
248 599 m 1,8,-1
 235 468 l 1,9,-1
 358 468 l 1,10,-1
 371 599 l 1,11,-1
 248 599 l 1,8,-1
EndSplineSet
EndChar

StartChar: plusminus
Encoding: 177 177 112
Width: 690
GlyphClass: 2
Flags: W
LayerCount: 2
Fore
SplineSet
131 447 m 1,0,-1
 324 447 l 1,1,-1
 338 580 l 1,2,-1
 472 580 l 1,3,-1
 458 447 l 1,4,-1
 651 447 l 1,5,-1
 637 313 l 1,6,-1
 444 313 l 1,7,-1
 430 180 l 1,8,-1
 296 180 l 1,9,-1
 310 313 l 1,10,-1
 117 313 l 1,11,-1
 131 447 l 1,0,-1
619 134 m 1,12,-1
 605 0 l 1,13,-1
 85 0 l 1,14,-1
 99 134 l 1,15,-1
 619 134 l 1,12,-1
EndSplineSet
EndChar

StartChar: acute
Encoding: 180 180 113
Width: 500
GlyphClass: 2
Flags: W
LayerCount: 2
Fore
SplineSet
227 590 m 1,0,-1
 334 718 l 1,1,-1
 504 718 l 1,2,-1
 347 590 l 1,3,-1
 227 590 l 1,0,-1
EndSplineSet
EndChar

StartChar: mu
Encoding: 181 181 114
Width: 618
GlyphClass: 2
Flags: W
LayerCount: 2
Fore
SplineSet
212 -188 m 1,0,-1
 75 -188 l 1,1,-1
 147 500 l 1,2,-1
 284 500 l 1,3,-1
 244 117 l 1,4,-1
 415 117 l 1,5,-1
 455 500 l 1,6,-1
 592 500 l 1,7,-1
 552 117 l 1,8,-1
 635 117 l 1,9,-1
 622 0 l 1,10,-1
 426 0 l 1,11,-1
 407 41 l 1,12,-1
 331 0 l 1,13,-1
 231 0 l 1,14,-1
 212 -188 l 1,0,-1
EndSplineSet
EndChar

StartChar: paragraph
Encoding: 182 182 115
Width: 735
GlyphClass: 2
Flags: W
LayerCount: 2
Fore
SplineSet
491 -200 m 1,0,-1
 574 583 l 1,1,-1
 487 583 l 1,2,-1
 404 -200 l 1,3,-1
 267 -200 l 1,4,-1
 312 219 l 1,5,-1
 194 219 l 1,6,-1
 85 286 l 1,7,-1
 121 633 l 1,8,-1
 244 700 l 1,9,-1
 723 700 l 1,10,-1
 628 -200 l 1,11,-1
 491 -200 l 1,0,-1
EndSplineSet
EndChar

StartChar: periodcentered
Encoding: 183 183 116
Width: 380
GlyphClass: 2
Flags: W
LayerCount: 2
Fore
SplineSet
122 264 m 1,0,-1
 142 454 l 1,1,-1
 332 454 l 1,2,-1
 312 264 l 1,3,-1
 122 264 l 1,0,-1
EndSplineSet
EndChar

StartChar: cedilla
Encoding: 184 184 117
Width: 578
GlyphClass: 2
Flags: W
LayerCount: 2
Fore
SplineSet
255 0 m 1,0,-1
 348 0 l 1,1,-1
 316 -47 l 1,2,-1
 378 -85 l 1,3,-1
 368 -179 l 1,4,-1
 276 -229 l 1,5,-1
 166 -229 l 1,6,-1
 175 -149 l 1,7,-1
 274 -149 l 1,8,-1
 279 -104 l 1,9,-1
 184 -104 l 1,10,-1
 255 0 l 1,0,-1
EndSplineSet
EndChar

StartChar: ordmasculine
Encoding: 186 186 118
Width: 595
GlyphClass: 2
Flags: W
LayerCount: 2
Fore
SplineSet
547 262 m 1,0,-1
 424 195 l 1,1,-1
 211 195 l 1,2,-1
 102 262 l 1,3,-1
 142 638 l 1,4,-1
 265 705 l 1,5,-1
 478 705 l 1,6,-1
 587 638 l 1,7,-1
 547 262 l 1,0,-1
273 588 m 1,8,-1
 244 312 l 1,9,-1
 415 312 l 1,10,-1
 444 588 l 1,11,-1
 273 588 l 1,8,-1
75 0 m 1,12,-1
 87 117 l 1,13,-1
 532 117 l 1,14,-1
 520 0 l 1,15,-1
 75 0 l 1,12,-1
EndSplineSet
EndChar

StartChar: guillemotright
Encoding: 187 187 119
Width: 690
GlyphClass: 2
Flags: W
LayerCount: 2
Fore
SplineSet
345 0 m 1,0,-1
 359 137 l 1,1,-1
 534 251 l 1,2,-1
 534 252 l 1,3,-1
 383 365 l 1,4,-1
 397 502 l 1,5,-1
 637 312 l 1,6,-1
 624 190 l 1,7,-1
 345 0 l 1,0,-1
85 0 m 1,8,-1
 99 137 l 1,9,-1
 274 251 l 1,10,-1
 274 252 l 1,11,-1
 123 365 l 1,12,-1
 137 502 l 1,13,-1
 377 312 l 1,14,-1
 364 190 l 1,15,-1
 85 0 l 1,8,-1
EndSplineSet
EndChar

StartChar: questiondown
Encoding: 191 191 120
Width: 590
GlyphClass: 2
Flags: W
LayerCount: 2
Fore
SplineSet
286 124 m 1,0,-1
 304 212 l 1,1,-1
 414 212 l 1,2,-1
 409 71 l 1,3,-1
 286 4 l 1,4,-1
 225 4 l 1,5,-1
 213 -110 l 1,6,-1
 353 -110 l 1,7,-1
 362 -20 l 1,8,-1
 502 -20 l 1,9,-1
 487 -163 l 1,10,-1
 364 -230 l 1,11,-1
 176 -230 l 1,12,-1
 67 -163 l 1,13,-1
 90 57 l 1,14,-1
 214 124 l 1,15,-1
 286 124 l 1,0,-1
484 500 m 1,16,-1
 464 310 l 1,17,-1
 274 310 l 1,18,-1
 294 500 l 1,19,-1
 484 500 l 1,16,-1
EndSplineSet
EndChar

StartChar: Aacute
Encoding: 193 193 122
Width: 674
GlyphClass: 2
Flags: W
LayerCount: 2
Fore
SplineSet
482 700 m 1,0,-1
 659 0 l 1,1,-1
 521 0 l 1,2,-1
 483 151 l 1,3,-1
 221 151 l 1,4,-1
 153 0 l 1,5,-1
 15 0 l 1,6,-1
 338 700 l 1,7,-1
 482 700 l 1,0,-1
391 524 m 1,8,-1
 276 271 l 1,9,-1
 453 271 l 1,10,-1
 393 524 l 1,11,-1
 391 524 l 1,8,-1
327 785 m 1,12,-1
 434 913 l 1,13,-1
 604 913 l 1,14,-1
 447 785 l 1,15,-1
 327 785 l 1,12,-1
EndSplineSet
EndChar

StartChar: Atilde
Encoding: 195 195 124
Width: 674
GlyphClass: 2
Flags: W
LayerCount: 2
Fore
SplineSet
482 700 m 1,0,-1
 659 0 l 1,1,-1
 521 0 l 1,2,-1
 483 151 l 1,3,-1
 221 151 l 1,4,-1
 153 0 l 1,5,-1
 15 0 l 1,6,-1
 338 700 l 1,7,-1
 482 700 l 1,0,-1
391 524 m 1,8,-1
 276 271 l 1,9,-1
 453 271 l 1,10,-1
 393 524 l 1,11,-1
 391 524 l 1,8,-1
331 867 m 1,12,-1
 327 867 l 1,13,-1
 318 785 l 1,14,-1
 220 785 l 1,15,-1
 233 909 l 1,16,-1
 333 964 l 1,17,-1
 361 964 l 1,18,-1
 494 882 l 1,19,-1
 498 882 l 1,20,-1
 507 964 l 1,21,-1
 605 964 l 1,22,-1
 592 840 l 1,23,-1
 492 785 l 1,24,-1
 464 785 l 1,25,-1
 331 867 l 1,12,-1
EndSplineSet
EndChar

StartChar: Aring
Encoding: 197 197 126
Width: 674
GlyphClass: 2
Flags: W
LayerCount: 2
Fore
SplineSet
567 657 m 1,0,-1
 502 622 l 1,1,-1
 659 0 l 1,2,-1
 521 0 l 1,3,-1
 483 151 l 1,4,-1
 221 151 l 1,5,-1
 153 0 l 1,6,-1
 15 0 l 1,7,-1
 301 620 l 1,8,-1
 242 657 l 1,9,-1
 264 866 l 1,10,-1
 350 913 l 1,11,-1
 511 913 l 1,12,-1
 589 866 l 1,13,-1
 567 657 l 1,0,-1
391 524 m 1,14,-1
 276 271 l 1,15,-1
 453 271 l 1,16,-1
 393 524 l 1,17,-1
 391 524 l 1,14,-1
363 818 m 1,18,-1
 352 705 l 1,19,-1
 467 705 l 1,20,-1
 478 818 l 1,21,-1
 363 818 l 1,18,-1
EndSplineSet
EndChar

StartChar: AE
Encoding: 198 198 127
Width: 952
GlyphClass: 2
Flags: W
LayerCount: 2
Fore
SplineSet
659 300 m 1,0,-1
 640 120 l 1,1,-1
 919 120 l 1,2,-1
 907 0 l 1,3,-1
 488 0 l 1,4,-1
 503 151 l 1,5,-1
 243 151 l 1,6,-1
 123 0 l 1,7,-1
 -25 0 l 1,8,-1
 539 700 l 1,9,-1
 980 700 l 1,10,-1
 967 580 l 1,11,-1
 688 580 l 1,12,-1
 672 420 l 1,13,-1
 891 420 l 1,14,-1
 878 300 l 1,15,-1
 659 300 l 1,0,-1
541 524 m 1,16,-1
 339 271 l 1,17,-1
 516 271 l 1,18,-1
 543 524 l 1,19,-1
 541 524 l 1,16,-1
EndSplineSet
EndChar

StartChar: Ccedilla
Encoding: 199 199 128
Width: 675
GlyphClass: 2
Flags: W
LayerCount: 2
Fore
SplineSet
481 205 m 1,0,-1
 621 205 l 1,1,-1
 606 62 l 1,2,-1
 483 -5 l 1,3,-1
 386 -5 l 1,4,-1
 358 -47 l 1,5,-1
 420 -85 l 1,6,-1
 410 -179 l 1,7,-1
 318 -229 l 1,8,-1
 208 -229 l 1,9,-1
 217 -149 l 1,10,-1
 316 -149 l 1,11,-1
 321 -104 l 1,12,-1
 226 -104 l 1,13,-1
 293 -5 l 1,14,-1
 200 -5 l 1,15,-1
 91 62 l 1,16,-1
 152 638 l 1,17,-1
 275 705 l 1,18,-1
 558 705 l 1,19,-1
 667 638 l 1,20,-1
 652 495 l 1,21,-1
 512 495 l 1,22,-1
 521 585 l 1,23,-1
 286 585 l 1,24,-1
 237 115 l 1,25,-1
 472 115 l 1,26,-1
 481 205 l 1,0,-1
EndSplineSet
EndChar

StartChar: Eacute
Encoding: 201 201 130
Width: 549
GlyphClass: 2
Flags: W
LayerCount: 2
Fore
SplineSet
256 300 m 1,0,-1
 237 120 l 1,1,-1
 516 120 l 1,2,-1
 504 0 l 1,3,-1
 85 0 l 1,4,-1
 158 700 l 1,5,-1
 577 700 l 1,6,-1
 564 580 l 1,7,-1
 285 580 l 1,8,-1
 269 420 l 1,9,-1
 488 420 l 1,10,-1
 475 300 l 1,11,-1
 256 300 l 1,0,-1
267 785 m 1,12,-1
 374 913 l 1,13,-1
 544 913 l 1,14,-1
 387 785 l 1,15,-1
 267 785 l 1,12,-1
EndSplineSet
EndChar

StartChar: Edieresis
Encoding: 203 203 132
Width: 549
GlyphClass: 2
Flags: W
LayerCount: 2
Fore
SplineSet
256 300 m 1,0,-1
 237 120 l 1,1,-1
 516 120 l 1,2,-1
 504 0 l 1,3,-1
 85 0 l 1,4,-1
 158 700 l 1,5,-1
 577 700 l 1,6,-1
 564 580 l 1,7,-1
 285 580 l 1,8,-1
 269 420 l 1,9,-1
 488 420 l 1,10,-1
 475 300 l 1,11,-1
 256 300 l 1,0,-1
172 785 m 1,12,-1
 186 920 l 1,13,-1
 321 920 l 1,14,-1
 307 785 l 1,15,-1
 172 785 l 1,12,-1
411 785 m 1,16,-1
 425 920 l 1,17,-1
 560 920 l 1,18,-1
 546 785 l 1,19,-1
 411 785 l 1,16,-1
EndSplineSet
EndChar

StartChar: Iacute
Encoding: 205 205 134
Width: 310
GlyphClass: 2
Flags: W
LayerCount: 2
Fore
SplineSet
85 0 m 1,0,-1
 158 700 l 1,1,-1
 298 700 l 1,2,-1
 225 0 l 1,3,-1
 85 0 l 1,0,-1
127 785 m 1,4,-1
 234 913 l 1,5,-1
 404 913 l 1,6,-1
 247 785 l 1,7,-1
 127 785 l 1,4,-1
EndSplineSet
EndChar

StartChar: Idieresis
Encoding: 207 207 136
Width: 310
GlyphClass: 2
Flags: W
LayerCount: 2
Fore
SplineSet
85 0 m 1,0,-1
 158 700 l 1,1,-1
 298 700 l 1,2,-1
 225 0 l 1,3,-1
 85 0 l 1,0,-1
30 785 m 1,4,-1
 44 920 l 1,5,-1
 179 920 l 1,6,-1
 165 785 l 1,7,-1
 30 785 l 1,4,-1
269 785 m 1,8,-1
 283 920 l 1,9,-1
 418 920 l 1,10,-1
 404 785 l 1,11,-1
 269 785 l 1,8,-1
EndSplineSet
EndChar

StartChar: Eth
Encoding: 208 208 137
Width: 715
GlyphClass: 2
Flags: W
LayerCount: 2
Fore
SplineSet
54 375 m 1,0,-1
 124 375 l 1,1,-1
 158 700 l 1,2,-1
 587 700 l 1,3,-1
 696 633 l 1,4,-1
 637 67 l 1,5,-1
 514 0 l 1,6,-1
 85 0 l 1,7,-1
 114 281 l 1,8,-1
 44 281 l 1,9,-1
 54 375 l 1,0,-1
285 580 m 1,10,-1
 264 375 l 1,11,-1
 360 375 l 1,12,-1
 350 281 l 1,13,-1
 254 281 l 1,14,-1
 237 120 l 1,15,-1
 502 120 l 1,16,-1
 550 580 l 1,17,-1
 285 580 l 1,10,-1
EndSplineSet
EndChar

StartChar: Oacute
Encoding: 211 211 140
Width: 715
GlyphClass: 2
Flags: W
LayerCount: 2
Fore
SplineSet
636 62 m 1,0,-1
 513 -5 l 1,1,-1
 200 -5 l 1,2,-1
 91 62 l 1,3,-1
 152 638 l 1,4,-1
 275 705 l 1,5,-1
 588 705 l 1,6,-1
 697 638 l 1,7,-1
 636 62 l 1,0,-1
286 585 m 1,8,-1
 237 115 l 1,9,-1
 502 115 l 1,10,-1
 551 585 l 1,11,-1
 286 585 l 1,8,-1
327 785 m 1,12,-1
 434 913 l 1,13,-1
 604 913 l 1,14,-1
 447 785 l 1,15,-1
 327 785 l 1,12,-1
EndSplineSet
EndChar

StartChar: Otilde
Encoding: 213 213 142
Width: 715
GlyphClass: 2
Flags: W
LayerCount: 2
Fore
SplineSet
636 62 m 1,0,-1
 513 -5 l 1,1,-1
 200 -5 l 1,2,-1
 91 62 l 1,3,-1
 152 638 l 1,4,-1
 275 705 l 1,5,-1
 588 705 l 1,6,-1
 697 638 l 1,7,-1
 636 62 l 1,0,-1
286 585 m 1,8,-1
 237 115 l 1,9,-1
 502 115 l 1,10,-1
 551 585 l 1,11,-1
 286 585 l 1,8,-1
351 867 m 1,12,-1
 347 867 l 1,13,-1
 338 785 l 1,14,-1
 240 785 l 1,15,-1
 253 909 l 1,16,-1
 353 964 l 1,17,-1
 381 964 l 1,18,-1
 514 882 l 1,19,-1
 518 882 l 1,20,-1
 527 964 l 1,21,-1
 625 964 l 1,22,-1
 612 840 l 1,23,-1
 512 785 l 1,24,-1
 484 785 l 1,25,-1
 351 867 l 1,12,-1
EndSplineSet
EndChar

StartChar: multiply
Encoding: 215 215 144
Width: 630
GlyphClass: 2
Flags: W
LayerCount: 2
Fore
SplineSet
204 520 m 1,0,-1
 352 355 l 1,1,-1
 534 520 l 1,2,-1
 619 425 l 1,3,-1
 437 260 l 1,4,-1
 584 95 l 1,5,-1
 480 0 l 1,6,-1
 332 165 l 1,7,-1
 150 0 l 1,8,-1
 64 95 l 1,9,-1
 247 260 l 1,10,-1
 99 425 l 1,11,-1
 204 520 l 1,0,-1
EndSplineSet
EndChar

StartChar: Oslash
Encoding: 216 216 145
Width: 715
GlyphClass: 2
Flags: W
LayerCount: 2
Fore
SplineSet
636 62 m 1,0,-1
 513 -5 l 1,1,-1
 200 -5 l 1,2,-1
 91 62 l 1,3,-1
 152 638 l 1,4,-1
 275 705 l 1,5,-1
 588 705 l 1,6,-1
 697 638 l 1,7,-1
 636 62 l 1,0,-1
286 115 m 1,8,-1
 502 115 l 1,9,-1
 539 475 l 1,10,-1
 286 115 l 1,8,-1
286 585 m 1,11,-1
 248 225 l 1,12,-1
 501 585 l 1,13,-1
 286 585 l 1,11,-1
EndSplineSet
EndChar

StartChar: Uacute
Encoding: 218 218 147
Width: 715
GlyphClass: 2
Flags: W
LayerCount: 2
Fore
SplineSet
563 700 m 1,0,-1
 703 700 l 1,1,-1
 636 62 l 1,2,-1
 513 -5 l 1,3,-1
 200 -5 l 1,4,-1
 91 62 l 1,5,-1
 158 700 l 1,6,-1
 298 700 l 1,7,-1
 238 125 l 1,8,-1
 503 125 l 1,9,-1
 563 700 l 1,0,-1
342 785 m 1,10,-1
 449 913 l 1,11,-1
 619 913 l 1,12,-1
 462 785 l 1,13,-1
 342 785 l 1,10,-1
EndSplineSet
EndChar

StartChar: Udieresis
Encoding: 220 220 149
Width: 715
GlyphClass: 2
Flags: W
LayerCount: 2
Fore
SplineSet
563 700 m 1,0,-1
 703 700 l 1,1,-1
 636 62 l 1,2,-1
 513 -5 l 1,3,-1
 200 -5 l 1,4,-1
 91 62 l 1,5,-1
 158 700 l 1,6,-1
 298 700 l 1,7,-1
 238 125 l 1,8,-1
 503 125 l 1,9,-1
 563 700 l 1,0,-1
237 785 m 1,10,-1
 251 920 l 1,11,-1
 386 920 l 1,12,-1
 372 785 l 1,13,-1
 237 785 l 1,10,-1
476 785 m 1,14,-1
 490 920 l 1,15,-1
 625 920 l 1,16,-1
 611 785 l 1,17,-1
 476 785 l 1,14,-1
EndSplineSet
EndChar

StartChar: Thorn
Encoding: 222 222 151
Width: 645
GlyphClass: 2
Flags: W
LayerCount: 2
Fore
SplineSet
85 0 m 1,0,-1
 161 730 l 1,1,-1
 301 730 l 1,2,-1
 288 602 l 1,3,-1
 517 602 l 1,4,-1
 626 535 l 1,5,-1
 591 208 l 1,6,-1
 468 141 l 1,7,-1
 239 141 l 1,8,-1
 225 0 l 1,9,-1
 85 0 l 1,0,-1
275 482 m 1,10,-1
 252 261 l 1,11,-1
 457 261 l 1,12,-1
 480 482 l 1,13,-1
 275 482 l 1,10,-1
EndSplineSet
EndChar

StartChar: germandbls
Encoding: 223 223 152
Width: 675
GlyphClass: 2
Flags: W
LayerCount: 2
Fore
SplineSet
56 302 m 1,0,-1
 69 422 l 1,1,-1
 159 422 l 1,2,-1
 181 633 l 1,3,-1
 304 700 l 1,4,-1
 527 700 l 1,5,-1
 636 633 l 1,6,-1
 613 413 l 1,7,-1
 534 370 l 1,8,-1
 632 311 l 1,9,-1
 607 67 l 1,10,-1
 484 0 l 1,11,-1
 318 0 l 1,12,-1
 330 120 l 1,13,-1
 472 120 l 1,14,-1
 491 302 l 1,15,-1
 349 302 l 1,16,-1
 362 422 l 1,17,-1
 474 422 l 1,18,-1
 490 580 l 1,19,-1
 315 580 l 1,20,-1
 233 -200 l 1,21,-1
 93 -200 l 1,22,-1
 146 302 l 1,23,-1
 56 302 l 1,0,-1
EndSplineSet
EndChar

StartChar: aacute
Encoding: 225 225 154
Width: 595
GlyphClass: 2
Flags: W
LayerCount: 2
Fore
SplineSet
394 112 m 1,0,-1
 423 388 l 1,1,-1
 252 388 l 1,2,-1
 223 112 l 1,3,-1
 394 112 l 1,0,-1
573 505 m 1,4,-1
 519 -5 l 1,5,-1
 453 -5 l 1,6,-1
 386 36 l 1,7,-1
 311 -5 l 1,8,-1
 190 -5 l 1,9,-1
 81 62 l 1,10,-1
 121 438 l 1,11,-1
 244 505 l 1,12,-1
 365 505 l 1,13,-1
 431 464 l 1,14,-1
 507 505 l 1,15,-1
 573 505 l 1,4,-1
247 590 m 1,16,-1
 354 718 l 1,17,-1
 524 718 l 1,18,-1
 367 590 l 1,19,-1
 247 590 l 1,16,-1
EndSplineSet
EndChar

StartChar: atilde
Encoding: 227 227 156
Width: 595
GlyphClass: 2
Flags: W
LayerCount: 2
Fore
SplineSet
394 112 m 1,0,-1
 423 388 l 1,1,-1
 252 388 l 1,2,-1
 223 112 l 1,3,-1
 394 112 l 1,0,-1
573 505 m 1,4,-1
 519 -5 l 1,5,-1
 453 -5 l 1,6,-1
 386 36 l 1,7,-1
 311 -5 l 1,8,-1
 190 -5 l 1,9,-1
 81 62 l 1,10,-1
 121 438 l 1,11,-1
 244 505 l 1,12,-1
 365 505 l 1,13,-1
 431 464 l 1,14,-1
 507 505 l 1,15,-1
 573 505 l 1,4,-1
292 667 m 1,16,-1
 288 667 l 1,17,-1
 279 585 l 1,18,-1
 181 585 l 1,19,-1
 194 709 l 1,20,-1
 294 764 l 1,21,-1
 322 764 l 1,22,-1
 455 682 l 1,23,-1
 459 682 l 1,24,-1
 468 764 l 1,25,-1
 566 764 l 1,26,-1
 553 640 l 1,27,-1
 453 585 l 1,28,-1
 425 585 l 1,29,-1
 292 667 l 1,16,-1
EndSplineSet
EndChar

StartChar: aring
Encoding: 229 229 158
Width: 595
GlyphClass: 2
Flags: W
LayerCount: 2
Fore
SplineSet
394 112 m 1,0,-1
 423 388 l 1,1,-1
 252 388 l 1,2,-1
 223 112 l 1,3,-1
 394 112 l 1,0,-1
573 505 m 1,4,-1
 519 -5 l 1,5,-1
 453 -5 l 1,6,-1
 386 36 l 1,7,-1
 311 -5 l 1,8,-1
 190 -5 l 1,9,-1
 81 62 l 1,10,-1
 121 438 l 1,11,-1
 244 505 l 1,12,-1
 365 505 l 1,13,-1
 431 464 l 1,14,-1
 507 505 l 1,15,-1
 573 505 l 1,4,-1
531 617 m 1,16,-1
 444 570 l 1,17,-1
 283 570 l 1,18,-1
 206 617 l 1,19,-1
 228 826 l 1,20,-1
 315 873 l 1,21,-1
 476 873 l 1,22,-1
 553 826 l 1,23,-1
 531 617 l 1,16,-1
328 778 m 1,24,-1
 316 665 l 1,25,-1
 431 665 l 1,26,-1
 443 778 l 1,27,-1
 328 778 l 1,24,-1
EndSplineSet
EndChar

StartChar: ae
Encoding: 230 230 159
Width: 823
GlyphClass: 2
Flags: W
LayerCount: 2
Fore
SplineSet
760 117 m 1,0,-1
 748 0 l 1,1,-1
 449 0 l 1,2,-1
 365 51 l 1,3,-1
 261 -5 l 1,4,-1
 170 -5 l 1,5,-1
 61 62 l 1,6,-1
 79 235 l 1,7,-1
 202 302 l 1,8,-1
 364 302 l 1,9,-1
 373 383 l 1,10,-1
 145 383 l 1,11,-1
 157 500 l 1,12,-1
 386 500 l 1,13,-1
 445 463 l 1,14,-1
 522 505 l 1,15,-1
 685 505 l 1,16,-1
 794 438 l 1,17,-1
 768 199 l 1,18,-1
 490 199 l 1,19,-1
 482 117 l 1,20,-1
 760 117 l 1,0,-1
212 197 m 1,21,-1
 203 110 l 1,22,-1
 344 110 l 1,23,-1
 353 197 l 1,24,-1
 212 197 l 1,21,-1
510 388 m 1,25,-1
 501 302 l 1,26,-1
 642 302 l 1,27,-1
 651 388 l 1,28,-1
 510 388 l 1,25,-1
EndSplineSet
EndChar

StartChar: ccedilla
Encoding: 231 231 160
Width: 515
GlyphClass: 2
Flags: W
LayerCount: 2
Fore
SplineSet
262 0 m 1,0,-1
 191 0 l 1,1,-1
 82 67 l 1,2,-1
 120 433 l 1,3,-1
 243 500 l 1,4,-1
 512 500 l 1,5,-1
 500 383 l 1,6,-1
 252 383 l 1,7,-1
 224 117 l 1,8,-1
 472 117 l 1,9,-1
 460 0 l 1,10,-1
 355 0 l 1,11,-1
 323 -47 l 1,12,-1
 385 -85 l 1,13,-1
 375 -179 l 1,14,-1
 283 -229 l 1,15,-1
 173 -229 l 1,16,-1
 182 -149 l 1,17,-1
 281 -149 l 1,18,-1
 286 -104 l 1,19,-1
 191 -104 l 1,20,-1
 262 0 l 1,0,-1
EndSplineSet
EndChar

StartChar: eacute
Encoding: 233 233 162
Width: 565
GlyphClass: 2
Flags: W
LayerCount: 2
Fore
SplineSet
502 117 m 1,0,-1
 490 0 l 1,1,-1
 191 0 l 1,2,-1
 82 67 l 1,3,-1
 121 438 l 1,4,-1
 244 505 l 1,5,-1
 427 505 l 1,6,-1
 536 438 l 1,7,-1
 510 199 l 1,8,-1
 232 199 l 1,9,-1
 224 117 l 1,10,-1
 502 117 l 1,0,-1
252 388 m 1,11,-1
 243 302 l 1,12,-1
 384 302 l 1,13,-1
 393 388 l 1,14,-1
 252 388 l 1,11,-1
257 590 m 1,15,-1
 364 718 l 1,16,-1
 534 718 l 1,17,-1
 377 590 l 1,18,-1
 257 590 l 1,15,-1
EndSplineSet
EndChar

StartChar: edieresis
Encoding: 235 235 164
Width: 565
GlyphClass: 2
Flags: W
LayerCount: 2
Fore
SplineSet
502 117 m 1,0,-1
 490 0 l 1,1,-1
 191 0 l 1,2,-1
 82 67 l 1,3,-1
 121 438 l 1,4,-1
 244 505 l 1,5,-1
 427 505 l 1,6,-1
 536 438 l 1,7,-1
 510 199 l 1,8,-1
 232 199 l 1,9,-1
 224 117 l 1,10,-1
 502 117 l 1,0,-1
252 388 m 1,11,-1
 243 302 l 1,12,-1
 384 302 l 1,13,-1
 393 388 l 1,14,-1
 252 388 l 1,11,-1
165 595 m 1,15,-1
 179 730 l 1,16,-1
 314 730 l 1,17,-1
 300 595 l 1,18,-1
 165 595 l 1,15,-1
404 595 m 1,19,-1
 418 730 l 1,20,-1
 553 730 l 1,21,-1
 539 595 l 1,22,-1
 404 595 l 1,19,-1
EndSplineSet
EndChar

StartChar: iacute
Encoding: 237 237 166
Width: 287
GlyphClass: 2
Flags: W
LayerCount: 2
Fore
SplineSet
264 500 m 1,0,-1
 212 0 l 1,1,-1
 75 0 l 1,2,-1
 127 500 l 1,3,-1
 264 500 l 1,0,-1
125 590 m 1,4,-1
 232 718 l 1,5,-1
 402 718 l 1,6,-1
 245 590 l 1,7,-1
 125 590 l 1,4,-1
EndSplineSet
EndChar

StartChar: idieresis
Encoding: 239 239 168
Width: 287
GlyphClass: 2
Flags: W
LayerCount: 2
Fore
SplineSet
264 500 m 1,0,-1
 212 0 l 1,1,-1
 75 0 l 1,2,-1
 127 500 l 1,3,-1
 264 500 l 1,0,-1
19 595 m 1,4,-1
 33 730 l 1,5,-1
 168 730 l 1,6,-1
 154 595 l 1,7,-1
 19 595 l 1,4,-1
258 595 m 1,8,-1
 272 730 l 1,9,-1
 407 730 l 1,10,-1
 393 595 l 1,11,-1
 258 595 l 1,8,-1
EndSplineSet
EndChar

StartChar: eth
Encoding: 240 240 169
Width: 645
GlyphClass: 2
Flags: W
LayerCount: 2
Fore
SplineSet
617 544 m 1,0,-1
 676 544 l 1,1,-1
 666 450 l 1,2,-1
 607 450 l 1,3,-1
 566 62 l 1,4,-1
 443 -5 l 1,5,-1
 200 -5 l 1,6,-1
 91 62 l 1,7,-1
 121 348 l 1,8,-1
 244 415 l 1,9,-1
 392 415 l 1,10,-1
 459 374 l 1,11,-1
 467 450 l 1,12,-1
 360 450 l 1,13,-1
 370 544 l 1,14,-1
 477 544 l 1,15,-1
 481 585 l 1,16,-1
 262 585 l 1,17,-1
 275 705 l 1,18,-1
 518 705 l 1,19,-1
 627 638 l 1,20,-1
 617 544 l 1,0,-1
432 115 m 1,21,-1
 451 295 l 1,22,-1
 256 295 l 1,23,-1
 237 115 l 1,24,-1
 432 115 l 1,21,-1
EndSplineSet
EndChar

StartChar: oacute
Encoding: 243 243 172
Width: 595
GlyphClass: 2
Flags: W
LayerCount: 2
Fore
SplineSet
526 62 m 1,0,-1
 403 -5 l 1,1,-1
 190 -5 l 1,2,-1
 81 62 l 1,3,-1
 121 438 l 1,4,-1
 244 505 l 1,5,-1
 457 505 l 1,6,-1
 566 438 l 1,7,-1
 526 62 l 1,0,-1
252 388 m 1,8,-1
 223 112 l 1,9,-1
 394 112 l 1,10,-1
 423 388 l 1,11,-1
 252 388 l 1,8,-1
257 590 m 1,12,-1
 364 718 l 1,13,-1
 534 718 l 1,14,-1
 377 590 l 1,15,-1
 257 590 l 1,12,-1
EndSplineSet
EndChar

StartChar: otilde
Encoding: 245 245 174
Width: 595
GlyphClass: 2
Flags: W
LayerCount: 2
Fore
SplineSet
526 62 m 1,0,-1
 403 -5 l 1,1,-1
 190 -5 l 1,2,-1
 81 62 l 1,3,-1
 121 438 l 1,4,-1
 244 505 l 1,5,-1
 457 505 l 1,6,-1
 566 438 l 1,7,-1
 526 62 l 1,0,-1
252 388 m 1,8,-1
 223 112 l 1,9,-1
 394 112 l 1,10,-1
 423 388 l 1,11,-1
 252 388 l 1,8,-1
292 667 m 1,12,-1
 288 667 l 1,13,-1
 279 585 l 1,14,-1
 181 585 l 1,15,-1
 194 709 l 1,16,-1
 294 764 l 1,17,-1
 322 764 l 1,18,-1
 455 682 l 1,19,-1
 459 682 l 1,20,-1
 468 764 l 1,21,-1
 566 764 l 1,22,-1
 553 640 l 1,23,-1
 453 585 l 1,24,-1
 425 585 l 1,25,-1
 292 667 l 1,12,-1
EndSplineSet
EndChar

StartChar: divide
Encoding: 247 247 176
Width: 610
GlyphClass: 2
Flags: W
LayerCount: 2
Fore
SplineSet
599 327 m 1,0,-1
 586 203 l 1,1,-1
 66 203 l 1,2,-1
 79 327 l 1,3,-1
 599 327 l 1,0,-1
216 -31 m 1,4,-1
 234 139 l 1,5,-1
 404 139 l 1,6,-1
 386 -31 l 1,7,-1
 216 -31 l 1,4,-1
261 391 m 1,8,-1
 278 561 l 1,9,-1
 448 561 l 1,10,-1
 431 391 l 1,11,-1
 261 391 l 1,8,-1
EndSplineSet
EndChar

StartChar: oslash
Encoding: 248 248 177
Width: 595
GlyphClass: 2
Flags: W
LayerCount: 2
Fore
SplineSet
526 62 m 1,0,-1
 403 -5 l 1,1,-1
 190 -5 l 1,2,-1
 81 62 l 1,3,-1
 121 438 l 1,4,-1
 244 505 l 1,5,-1
 457 505 l 1,6,-1
 566 438 l 1,7,-1
 526 62 l 1,0,-1
264 112 m 1,8,-1
 394 112 l 1,9,-1
 414 301 l 1,10,-1
 264 112 l 1,8,-1
252 388 m 1,11,-1
 232 198 l 1,12,-1
 382 388 l 1,13,-1
 252 388 l 1,11,-1
EndSplineSet
EndChar

StartChar: uacute
Encoding: 250 250 179
Width: 595
GlyphClass: 2
Flags: W
LayerCount: 2
Fore
SplineSet
81 62 m 1,0,-1
 127 500 l 1,1,-1
 264 500 l 1,2,-1
 223 112 l 1,3,-1
 394 112 l 1,4,-1
 435 500 l 1,5,-1
 572 500 l 1,6,-1
 519 -5 l 1,7,-1
 406 -5 l 1,8,-1
 386 36 l 1,9,-1
 311 -5 l 1,10,-1
 190 -5 l 1,11,-1
 81 62 l 1,0,-1
267 590 m 1,12,-1
 374 718 l 1,13,-1
 544 718 l 1,14,-1
 387 590 l 1,15,-1
 267 590 l 1,12,-1
EndSplineSet
EndChar

StartChar: udieresis
Encoding: 252 252 181
Width: 595
GlyphClass: 2
Flags: W
LayerCount: 2
Fore
SplineSet
81 62 m 1,0,-1
 127 500 l 1,1,-1
 264 500 l 1,2,-1
 223 112 l 1,3,-1
 394 112 l 1,4,-1
 435 500 l 1,5,-1
 572 500 l 1,6,-1
 519 -5 l 1,7,-1
 406 -5 l 1,8,-1
 386 36 l 1,9,-1
 311 -5 l 1,10,-1
 190 -5 l 1,11,-1
 81 62 l 1,0,-1
177 595 m 1,12,-1
 191 730 l 1,13,-1
 326 730 l 1,14,-1
 312 595 l 1,15,-1
 177 595 l 1,12,-1
416 595 m 1,16,-1
 430 730 l 1,17,-1
 565 730 l 1,18,-1
 551 595 l 1,19,-1
 416 595 l 1,16,-1
EndSplineSet
EndChar

StartChar: thorn
Encoding: 254 254 183
Width: 585
GlyphClass: 2
Flags: W
LayerCount: 2
Fore
SplineSet
141 730 m 1,0,-1
 278 730 l 1,1,-1
 250 464 l 1,2,-1
 326 505 l 1,3,-1
 457 505 l 1,4,-1
 566 438 l 1,5,-1
 526 62 l 1,6,-1
 403 -5 l 1,7,-1
 272 -5 l 1,8,-1
 205 36 l 1,9,-1
 180 -200 l 1,10,-1
 43 -200 l 1,11,-1
 141 730 l 1,0,-1
242 388 m 1,12,-1
 213 112 l 1,13,-1
 394 112 l 1,14,-1
 423 388 l 1,15,-1
 242 388 l 1,12,-1
EndSplineSet
EndChar

StartChar: ydieresis
Encoding: 255 255 184
Width: 545
GlyphClass: 2
Flags: W
LayerCount: 2
Fore
SplineSet
92 -200 m 1,0,-1
 209 35 l 1,1,-1
 67 500 l 1,2,-1
 204 500 l 1,3,-1
 296 206 l 1,4,-1
 298 206 l 1,5,-1
 445 500 l 1,6,-1
 582 500 l 1,7,-1
 227 -200 l 1,8,-1
 92 -200 l 1,0,-1
157 595 m 1,9,-1
 171 730 l 1,10,-1
 306 730 l 1,11,-1
 292 595 l 1,12,-1
 157 595 l 1,9,-1
396 595 m 1,13,-1
 410 730 l 1,14,-1
 545 730 l 1,15,-1
 531 595 l 1,16,-1
 396 595 l 1,13,-1
EndSplineSet
EndChar

StartChar: hbar
Encoding: 295 295 185
Width: 605
GlyphClass: 2
Flags: W
LayerCount: 2
Fore
SplineSet
212 0 m 1,0,-1
 75 0 l 1,1,-1
 134 565 l 1,2,-1
 69 565 l 1,3,-1
 79 659 l 1,4,-1
 144 659 l 1,5,-1
 151 730 l 1,6,-1
 288 730 l 1,7,-1
 281 659 l 1,8,-1
 429 659 l 1,9,-1
 419 565 l 1,10,-1
 271 565 l 1,11,-1
 260 464 l 1,12,-1
 336 505 l 1,13,-1
 467 505 l 1,14,-1
 576 438 l 1,15,-1
 530 0 l 1,16,-1
 393 0 l 1,17,-1
 433 388 l 1,18,-1
 252 388 l 1,19,-1
 212 0 l 1,0,-1
EndSplineSet
EndChar

StartChar: itilde
Encoding: 297 297 187
Width: 287
GlyphClass: 2
Flags: W
LayerCount: 2
Fore
SplineSet
264 500 m 1,0,-1
 212 0 l 1,1,-1
 75 0 l 1,2,-1
 127 500 l 1,3,-1
 264 500 l 1,0,-1
117 667 m 1,4,-1
 113 667 l 1,5,-1
 104 585 l 1,6,-1
 6 585 l 1,7,-1
 19 709 l 1,8,-1
 119 764 l 1,9,-1
 147 764 l 1,10,-1
 280 682 l 1,11,-1
 284 682 l 1,12,-1
 293 764 l 1,13,-1
 391 764 l 1,14,-1
 378 640 l 1,15,-1
 278 585 l 1,16,-1
 250 585 l 1,17,-1
 117 667 l 1,4,-1
EndSplineSet
EndChar

StartChar: dotlessi
Encoding: 305 305 188
Width: 287
GlyphClass: 2
Flags: W
LayerCount: 2
Fore
SplineSet
264 500 m 1,0,-1
 212 0 l 1,1,-1
 75 0 l 1,2,-1
 127 500 l 1,3,-1
 264 500 l 1,0,-1
EndSplineSet
EndChar

StartChar: IJ
Encoding: 306 306 189
Width: 855
GlyphClass: 2
Flags: W
LayerCount: 2
Fore
SplineSet
85 0 m 1,0,-1
 158 700 l 1,1,-1
 298 700 l 1,2,-1
 225 0 l 1,3,-1
 85 0 l 1,0,-1
642 115 m 1,4,-1
 703 700 l 1,5,-1
 843 700 l 1,6,-1
 776 62 l 1,7,-1
 653 -5 l 1,8,-1
 440 -5 l 1,9,-1
 331 62 l 1,10,-1
 351 255 l 1,11,-1
 491 255 l 1,12,-1
 477 115 l 1,13,-1
 642 115 l 1,4,-1
EndSplineSet
EndChar

StartChar: ij
Encoding: 307 307 190
Width: 574
GlyphClass: 2
Flags: W
LayerCount: 2
Fore
SplineSet
264 500 m 1,0,-1
 212 0 l 1,1,-1
 75 0 l 1,2,-1
 127 500 l 1,3,-1
 264 500 l 1,0,-1
132 593 m 1,4,-1
 146 730 l 1,5,-1
 293 730 l 1,6,-1
 279 593 l 1,7,-1
 132 593 l 1,4,-1
419 593 m 1,8,-1
 433 730 l 1,9,-1
 580 730 l 1,10,-1
 566 593 l 1,11,-1
 419 593 l 1,8,-1
551 500 m 1,12,-1
 485 -133 l 1,13,-1
 361 -200 l 1,14,-1
 241 -200 l 1,15,-1
 254 -83 l 1,16,-1
 353 -83 l 1,17,-1
 414 500 l 1,18,-1
 551 500 l 1,12,-1
EndSplineSet
EndChar

StartChar: jcircumflex
Encoding: 309 309 192
Width: 287
GlyphClass: 2
Flags: W
LayerCount: 2
Fore
SplineSet
264 500 m 1,0,-1
 198 -133 l 1,1,-1
 74 -200 l 1,2,-1
 -46 -200 l 1,3,-1
 -33 -83 l 1,4,-1
 66 -83 l 1,5,-1
 127 500 l 1,6,-1
 264 500 l 1,0,-1
126 738 m 1,7,-1
 316 738 l 1,8,-1
 402 590 l 1,9,-1
 287 590 l 1,10,-1
 214 670 l 1,11,-1
 126 590 l 1,12,-1
 11 590 l 1,13,-1
 126 738 l 1,7,-1
EndSplineSet
EndChar

StartChar: kcommaaccent
Encoding: 311 311 193
Width: 551
GlyphClass: 2
Flags: W
LayerCount: 2
Fore
SplineSet
288 730 m 1,0,-1
 243 299 l 1,1,-1
 245 299 l 1,2,-1
 421 500 l 1,3,-1
 578 500 l 1,4,-1
 376 277 l 1,5,-1
 556 0 l 1,6,-1
 397 0 l 1,7,-1
 285 177 l 1,8,-1
 223 108 l 1,9,-1
 212 0 l 1,10,-1
 75 0 l 1,11,-1
 151 730 l 1,12,-1
 288 730 l 1,0,-1
183 -367 m 1,13,-1
 215 -55 l 1,14,-1
 367 -55 l 1,15,-1
 360 -121 l 1,16,-1
 249 -367 l 1,17,-1
 183 -367 l 1,13,-1
EndSplineSet
EndChar

StartChar: kgreenlandic
Encoding: 312 312 194
Width: 551
GlyphClass: 2
Flags: W
LayerCount: 2
Fore
SplineSet
263 500 m 1,0,-1
 243 299 l 1,1,-1
 245 299 l 1,2,-1
 421 500 l 1,3,-1
 578 500 l 1,4,-1
 376 277 l 1,5,-1
 556 0 l 1,6,-1
 397 0 l 1,7,-1
 285 177 l 1,8,-1
 223 108 l 1,9,-1
 212 0 l 1,10,-1
 75 0 l 1,11,-1
 126 500 l 1,12,-1
 263 500 l 1,0,-1
EndSplineSet
EndChar

StartChar: Ldotaccent
Encoding: 319 319 195
Width: 500
GlyphClass: 2
Flags: W
LayerCount: 2
Fore
SplineSet
85 0 m 1,0,-1
 158 700 l 1,1,-1
 298 700 l 1,2,-1
 237 120 l 1,3,-1
 476 120 l 1,4,-1
 464 0 l 1,5,-1
 85 0 l 1,0,-1
343 234 m 1,6,-1
 357 368 l 1,7,-1
 491 368 l 1,8,-1
 477 234 l 1,9,-1
 343 234 l 1,6,-1
EndSplineSet
EndChar

StartChar: ldot
Encoding: 320 320 196
Width: 483
GlyphClass: 2
Flags: W
LayerCount: 2
Fore
SplineSet
191 0 m 1,0,-1
 82 67 l 1,1,-1
 151 730 l 1,2,-1
 288 730 l 1,3,-1
 224 117 l 1,4,-1
 324 117 l 1,5,-1
 312 0 l 1,6,-1
 191 0 l 1,0,-1
333 234 m 1,7,-1
 347 368 l 1,8,-1
 481 368 l 1,9,-1
 467 234 l 1,10,-1
 333 234 l 1,7,-1
EndSplineSet
EndChar

StartChar: Lslash
Encoding: 321 321 197
Width: 489
GlyphClass: 2
Flags: W
LayerCount: 2
Fore
SplineSet
54 378 m 1,0,-1
 126 396 l 1,1,-1
 158 700 l 1,2,-1
 298 700 l 1,3,-1
 270 433 l 1,4,-1
 369 458 l 1,5,-1
 358 358 l 1,6,-1
 259 333 l 1,7,-1
 237 120 l 1,8,-1
 476 120 l 1,9,-1
 464 0 l 1,10,-1
 85 0 l 1,11,-1
 116 296 l 1,12,-1
 44 278 l 1,13,-1
 54 378 l 1,0,-1
EndSplineSet
EndChar

StartChar: lslash
Encoding: 322 322 198
Width: 327
GlyphClass: 2
Flags: W
LayerCount: 2
Fore
SplineSet
54 378 m 1,0,-1
 116 394 l 1,1,-1
 151 730 l 1,2,-1
 288 730 l 1,3,-1
 257 431 l 1,4,-1
 348 455 l 1,5,-1
 338 355 l 1,6,-1
 246 331 l 1,7,-1
 224 117 l 1,8,-1
 324 117 l 1,9,-1
 312 0 l 1,10,-1
 191 0 l 1,11,-1
 82 67 l 1,12,-1
 105 294 l 1,13,-1
 44 278 l 1,14,-1
 54 378 l 1,0,-1
EndSplineSet
EndChar

StartChar: nacute
Encoding: 324 324 200
Width: 595
GlyphClass: 2
Flags: W
LayerCount: 2
Fore
SplineSet
566 438 m 1,0,-1
 520 0 l 1,1,-1
 383 0 l 1,2,-1
 423 388 l 1,3,-1
 252 388 l 1,4,-1
 212 0 l 1,5,-1
 75 0 l 1,6,-1
 128 505 l 1,7,-1
 241 505 l 1,8,-1
 260 464 l 1,9,-1
 336 505 l 1,10,-1
 457 505 l 1,11,-1
 566 438 l 1,0,-1
239 590 m 1,12,-1
 346 718 l 1,13,-1
 516 718 l 1,14,-1
 359 590 l 1,15,-1
 239 590 l 1,12,-1
EndSplineSet
EndChar

StartChar: OE
Encoding: 338 338 201
Width: 954
GlyphClass: 2
Flags: W
LayerCount: 2
Fore
SplineSet
661 300 m 1,0,-1
 642 120 l 1,1,-1
 921 120 l 1,2,-1
 909 0 l 1,3,-1
 201 0 l 1,4,-1
 92 67 l 1,5,-1
 151 633 l 1,6,-1
 274 700 l 1,7,-1
 982 700 l 1,8,-1
 969 580 l 1,9,-1
 690 580 l 1,10,-1
 674 420 l 1,11,-1
 893 420 l 1,12,-1
 880 300 l 1,13,-1
 661 300 l 1,0,-1
285 580 m 1,14,-1
 237 120 l 1,15,-1
 502 120 l 1,16,-1
 550 580 l 1,17,-1
 285 580 l 1,14,-1
EndSplineSet
EndChar

StartChar: oe
Encoding: 339 339 202
Width: 873
GlyphClass: 2
Flags: W
LayerCount: 2
Fore
SplineSet
810 117 m 1,0,-1
 798 0 l 1,1,-1
 519 0 l 1,2,-1
 459 36 l 1,3,-1
 383 -5 l 1,4,-1
 190 -5 l 1,5,-1
 81 62 l 1,6,-1
 121 438 l 1,7,-1
 244 505 l 1,8,-1
 437 505 l 1,9,-1
 499 466 l 1,10,-1
 572 505 l 1,11,-1
 735 505 l 1,12,-1
 844 438 l 1,13,-1
 818 199 l 1,14,-1
 540 199 l 1,15,-1
 532 117 l 1,16,-1
 810 117 l 1,0,-1
252 388 m 1,17,-1
 223 112 l 1,18,-1
 394 112 l 1,19,-1
 423 388 l 1,20,-1
 252 388 l 1,17,-1
560 388 m 1,21,-1
 551 302 l 1,22,-1
 692 302 l 1,23,-1
 701 388 l 1,24,-1
 560 388 l 1,21,-1
EndSplineSet
EndChar

StartChar: Rcommaaccent
Encoding: 342 342 204
Width: 665
GlyphClass: 2
Flags: W
LayerCount: 2
Fore
SplineSet
616 0 m 1,0,-1
 462 0 l 1,1,-1
 339 264 l 1,2,-1
 252 264 l 1,3,-1
 225 0 l 1,4,-1
 85 0 l 1,5,-1
 158 700 l 1,6,-1
 537 700 l 1,7,-1
 646 633 l 1,8,-1
 614 331 l 1,9,-1
 491 264 l 1,10,-1
 616 0 l 1,0,-1
285 580 m 1,11,-1
 265 384 l 1,12,-1
 480 384 l 1,13,-1
 500 580 l 1,14,-1
 285 580 l 1,11,-1
220 -367 m 1,15,-1
 252 -55 l 1,16,-1
 404 -55 l 1,17,-1
 397 -121 l 1,18,-1
 286 -367 l 1,19,-1
 220 -367 l 1,15,-1
EndSplineSet
EndChar

StartChar: rcommaaccent
Encoding: 343 343 205
Width: 409
GlyphClass: 2
Flags: W
LayerCount: 2
Fore
SplineSet
424 383 m 1,0,-1
 252 383 l 1,1,-1
 212 0 l 1,2,-1
 75 0 l 1,3,-1
 127 500 l 1,4,-1
 240 500 l 1,5,-1
 260 459 l 1,6,-1
 335 500 l 1,7,-1
 436 500 l 1,8,-1
 424 383 l 1,0,-1
112 -367 m 1,9,-1
 144 -55 l 1,10,-1
 296 -55 l 1,11,-1
 289 -121 l 1,12,-1
 178 -367 l 1,13,-1
 112 -367 l 1,9,-1
EndSplineSet
EndChar

StartChar: rcaron
Encoding: 345 345 207
Width: 409
GlyphClass: 2
Flags: W
LayerCount: 2
Fore
SplineSet
424 383 m 1,0,-1
 252 383 l 1,1,-1
 212 0 l 1,2,-1
 75 0 l 1,3,-1
 127 500 l 1,4,-1
 240 500 l 1,5,-1
 260 459 l 1,6,-1
 335 500 l 1,7,-1
 436 500 l 1,8,-1
 424 383 l 1,0,-1
375 590 m 1,9,-1
 185 590 l 1,10,-1
 99 738 l 1,11,-1
 214 738 l 1,12,-1
 287 658 l 1,13,-1
 375 738 l 1,14,-1
 490 738 l 1,15,-1
 375 590 l 1,9,-1
EndSplineSet
EndChar

StartChar: scaron
Encoding: 353 353 209
Width: 552
GlyphClass: 2
Flags: W
LayerCount: 2
Fore
SplineSet
496 246 m 1,0,-1
 478 67 l 1,1,-1
 355 0 l 1,2,-1
 75 0 l 1,3,-1
 87 117 l 1,4,-1
 346 117 l 1,5,-1
 354 194 l 1,6,-1
 211 194 l 1,7,-1
 102 261 l 1,8,-1
 120 433 l 1,9,-1
 243 500 l 1,10,-1
 513 500 l 1,11,-1
 501 383 l 1,12,-1
 252 383 l 1,13,-1
 244 313 l 1,14,-1
 387 313 l 1,15,-1
 496 246 l 1,0,-1
439 590 m 1,16,-1
 249 590 l 1,17,-1
 163 738 l 1,18,-1
 278 738 l 1,19,-1
 351 658 l 1,20,-1
 439 738 l 1,21,-1
 554 738 l 1,22,-1
 439 590 l 1,16,-1
EndSplineSet
EndChar

StartChar: zcaron
Encoding: 382 382 212
Width: 476
GlyphClass: 2
Flags: W
LayerCount: 2
Fore
SplineSet
45 96 m 1,0,-1
 291 381 l 1,1,-1
 291 383 l 1,2,-1
 85 383 l 1,3,-1
 97 500 l 1,4,-1
 483 500 l 1,5,-1
 473 404 l 1,6,-1
 227 119 l 1,7,-1
 227 117 l 1,8,-1
 443 117 l 1,9,-1
 431 0 l 1,10,-1
 35 0 l 1,11,-1
 45 96 l 1,0,-1
403 590 m 1,12,-1
 213 590 l 1,13,-1
 127 738 l 1,14,-1
 242 738 l 1,15,-1
 315 658 l 1,16,-1
 403 738 l 1,17,-1
 518 738 l 1,18,-1
 403 590 l 1,12,-1
EndSplineSet
EndChar

StartChar: florin
Encoding: 402 402 213
Width: 409
GlyphClass: 2
Flags: W
LayerCount: 2
Fore
SplineSet
118 -82 m 1,0,-1
 167 383 l 1,1,-1
 75 383 l 1,2,-1
 87 500 l 1,3,-1
 179 500 l 1,4,-1
 196 663 l 1,5,-1
 319 730 l 1,6,-1
 450 730 l 1,7,-1
 438 613 l 1,8,-1
 328 613 l 1,9,-1
 316 500 l 1,10,-1
 426 500 l 1,11,-1
 414 383 l 1,12,-1
 304 383 l 1,13,-1
 250 -132 l 1,14,-1
 127 -199 l 1,15,-1
 -3 -199 l 1,16,-1
 8 -82 l 1,17,-1
 118 -82 l 1,0,-1
EndSplineSet
EndChar

StartChar: circumflex
Encoding: 710 710 214
Width: 531
GlyphClass: 2
Flags: W
LayerCount: 2
Fore
SplineSet
247 738 m 1,0,-1
 437 738 l 1,1,-1
 523 590 l 1,2,-1
 408 590 l 1,3,-1
 335 670 l 1,4,-1
 247 590 l 1,5,-1
 132 590 l 1,6,-1
 247 738 l 1,0,-1
EndSplineSet
EndChar

StartChar: caron
Encoding: 711 711 215
Width: 531
GlyphClass: 2
Flags: W
LayerCount: 2
Fore
SplineSet
424 590 m 1,0,-1
 234 590 l 1,1,-1
 148 738 l 1,2,-1
 263 738 l 1,3,-1
 336 658 l 1,4,-1
 424 738 l 1,5,-1
 539 738 l 1,6,-1
 424 590 l 1,0,-1
EndSplineSet
EndChar

StartChar: breve
Encoding: 728 728 216
Width: 529
GlyphClass: 2
Flags: W
LayerCount: 2
Fore
SplineSet
401 756 m 1,0,-1
 506 756 l 1,1,-1
 492 627 l 1,2,-1
 405 580 l 1,3,-1
 244 580 l 1,4,-1
 167 627 l 1,5,-1
 181 756 l 1,6,-1
 286 756 l 1,7,-1
 276 665 l 1,8,-1
 391 665 l 1,9,-1
 401 756 l 1,0,-1
EndSplineSet
EndChar

StartChar: dotaccent
Encoding: 729 729 217
Width: 350
GlyphClass: 2
Flags: W
LayerCount: 2
Fore
SplineSet
142 591 m 1,0,-1
 162 781 l 1,1,-1
 352 781 l 1,2,-1
 332 591 l 1,3,-1
 142 591 l 1,0,-1
EndSplineSet
EndChar

StartChar: ring
Encoding: 730 730 218
Width: 529
GlyphClass: 2
Flags: W
LayerCount: 2
Fore
SplineSet
491 617 m 1,0,-1
 404 570 l 1,1,-1
 243 570 l 1,2,-1
 166 617 l 1,3,-1
 188 826 l 1,4,-1
 275 873 l 1,5,-1
 436 873 l 1,6,-1
 513 826 l 1,7,-1
 491 617 l 1,0,-1
288 778 m 1,8,-1
 276 665 l 1,9,-1
 391 665 l 1,10,-1
 403 778 l 1,11,-1
 288 778 l 1,8,-1
EndSplineSet
EndChar

StartChar: ogonek
Encoding: 731 731 219
Width: 520
GlyphClass: 2
Flags: W
LayerCount: 2
Fore
SplineSet
267 0 m 1,0,-1
 254 -116 l 1,1,-1
 347 -116 l 1,2,-1
 337 -213 l 1,3,-1
 253 -213 l 1,4,-1
 144 -146 l 1,5,-1
 160 0 l 1,6,-1
 267 0 l 1,0,-1
EndSplineSet
EndChar

StartChar: tilde
Encoding: 732 732 220
Width: 506
GlyphClass: 2
Flags: W
LayerCount: 2
Fore
SplineSet
242 667 m 1,0,-1
 238 667 l 1,1,-1
 229 585 l 1,2,-1
 131 585 l 1,3,-1
 144 709 l 1,4,-1
 244 764 l 1,5,-1
 272 764 l 1,6,-1
 405 682 l 1,7,-1
 409 682 l 1,8,-1
 418 764 l 1,9,-1
 516 764 l 1,10,-1
 503 640 l 1,11,-1
 403 585 l 1,12,-1
 375 585 l 1,13,-1
 242 667 l 1,0,-1
EndSplineSet
EndChar

StartChar: hungarumlaut
Encoding: 733 733 221
Width: 580
GlyphClass: 2
Flags: W
LayerCount: 2
Fore
SplineSet
128 590 m 1,0,-1
 235 718 l 1,1,-1
 405 718 l 1,2,-1
 248 590 l 1,3,-1
 128 590 l 1,0,-1
347 590 m 1,4,-1
 454 718 l 1,5,-1
 624 718 l 1,6,-1
 467 590 l 1,7,-1
 347 590 l 1,4,-1
EndSplineSet
EndChar

StartChar: endash
Encoding: 8211 8211 222
Width: 706
GlyphClass: 2
Flags: W
LayerCount: 2
Fore
SplineSet
85 198 m 1,0,-1
 99 325 l 1,1,-1
 675 325 l 1,2,-1
 661 198 l 1,3,-1
 85 198 l 1,0,-1
EndSplineSet
EndChar

StartChar: emdash
Encoding: 8212 8212 223
Width: 984
GlyphClass: 2
Flags: W
LayerCount: 2
Fore
SplineSet
85 198 m 1,0,-1
 99 325 l 1,1,-1
 953 325 l 1,2,-1
 939 198 l 1,3,-1
 85 198 l 1,0,-1
EndSplineSet
EndChar

StartChar: quoteleft
Encoding: 8216 8216 224
Width: 360
GlyphClass: 2
Flags: W
LayerCount: 2
Fore
SplineSet
351 730 m 1,0,-1
 310 340 l 1,1,-1
 120 340 l 1,2,-1
 129 422 l 1,3,-1
 269 730 l 1,4,-1
 351 730 l 1,0,-1
EndSplineSet
EndChar

StartChar: quoteright
Encoding: 8217 8217 225
Width: 360
GlyphClass: 2
Flags: W
LayerCount: 2
Fore
SplineSet
120 340 m 1,0,-1
 161 730 l 1,1,-1
 351 730 l 1,2,-1
 343 648 l 1,3,-1
 202 340 l 1,4,-1
 120 340 l 1,0,-1
EndSplineSet
EndChar

StartChar: quotesinglbase
Encoding: 8218 8218 226
Width: 380
GlyphClass: 2
Flags: W
LayerCount: 2
Fore
SplineSet
73 -200 m 1,0,-1
 114 190 l 1,1,-1
 304 190 l 1,2,-1
 296 108 l 1,3,-1
 155 -200 l 1,4,-1
 73 -200 l 1,0,-1
EndSplineSet
EndChar

StartChar: quotedblleft
Encoding: 8220 8220 227
Width: 640
GlyphClass: 2
Flags: W
LayerCount: 2
Fore
SplineSet
631 730 m 1,0,-1
 590 340 l 1,1,-1
 400 340 l 1,2,-1
 409 422 l 1,3,-1
 549 730 l 1,4,-1
 631 730 l 1,0,-1
351 730 m 1,5,-1
 310 340 l 1,6,-1
 120 340 l 1,7,-1
 129 422 l 1,8,-1
 269 730 l 1,9,-1
 351 730 l 1,5,-1
EndSplineSet
EndChar

StartChar: quotedblright
Encoding: 8221 8221 228
Width: 640
GlyphClass: 2
Flags: W
LayerCount: 2
Fore
SplineSet
120 340 m 1,0,-1
 161 730 l 1,1,-1
 351 730 l 1,2,-1
 343 648 l 1,3,-1
 202 340 l 1,4,-1
 120 340 l 1,0,-1
400 340 m 1,5,-1
 441 730 l 1,6,-1
 631 730 l 1,7,-1
 623 648 l 1,8,-1
 482 340 l 1,9,-1
 400 340 l 1,5,-1
EndSplineSet
EndChar

StartChar: quotedblbase
Encoding: 8222 8222 229
Width: 660
GlyphClass: 2
Flags: W
LayerCount: 2
Fore
SplineSet
73 -200 m 1,0,-1
 114 190 l 1,1,-1
 304 190 l 1,2,-1
 296 108 l 1,3,-1
 155 -200 l 1,4,-1
 73 -200 l 1,0,-1
353 -200 m 1,5,-1
 394 190 l 1,6,-1
 584 190 l 1,7,-1
 576 108 l 1,8,-1
 435 -200 l 1,9,-1
 353 -200 l 1,5,-1
EndSplineSet
EndChar

StartChar: dagger
Encoding: 8224 8224 230
Width: 613
GlyphClass: 2
Flags: W
LayerCount: 2
Fore
SplineSet
403 424 m 1,0,-1
 347 -200 l 1,1,-1
 222 -200 l 1,2,-1
 298 424 l 1,3,-1
 98 414 l 1,4,-1
 111 539 l 1,5,-1
 309 529 l 1,6,-1
 320 731 l 1,7,-1
 445 731 l 1,8,-1
 414 529 l 1,9,-1
 614 539 l 1,10,-1
 601 414 l 1,11,-1
 403 424 l 1,0,-1
EndSplineSet
EndChar

StartChar: daggerdbl
Encoding: 8225 8225 231
Width: 613
GlyphClass: 2
Flags: W
LayerCount: 2
Fore
SplineSet
393 266 m 1,0,-1
 370 107 l 1,1,-1
 570 117 l 1,2,-1
 557 -8 l 1,3,-1
 359 2 l 1,4,-1
 347 -200 l 1,5,-1
 222 -200 l 1,6,-1
 254 2 l 1,7,-1
 54 -8 l 1,8,-1
 67 117 l 1,9,-1
 265 107 l 1,10,-1
 274 266 l 1,11,-1
 298 424 l 1,12,-1
 98 414 l 1,13,-1
 111 539 l 1,14,-1
 309 529 l 1,15,-1
 320 731 l 1,16,-1
 445 731 l 1,17,-1
 414 529 l 1,18,-1
 614 539 l 1,19,-1
 601 414 l 1,20,-1
 403 424 l 1,21,-1
 393 266 l 1,0,-1
EndSplineSet
EndChar

StartChar: bullet
Encoding: 8226 8226 232
Width: 570
GlyphClass: 2
Flags: W
LayerCount: 2
Fore
SplineSet
498 224 m 1,0,-1
 375 157 l 1,1,-1
 227 157 l 1,2,-1
 118 224 l 1,3,-1
 144 470 l 1,4,-1
 267 537 l 1,5,-1
 415 537 l 1,6,-1
 524 470 l 1,7,-1
 498 224 l 1,0,-1
EndSplineSet
EndChar

StartChar: ellipsis
Encoding: 8230 8230 233
Width: 1042
GlyphClass: 2
Flags: W
LayerCount: 2
Fore
SplineSet
95 0 m 1,0,-1
 114 190 l 1,1,-1
 304 190 l 1,2,-1
 285 0 l 1,3,-1
 95 0 l 1,0,-1
426 0 m 1,4,-1
 445 190 l 1,5,-1
 635 190 l 1,6,-1
 616 0 l 1,7,-1
 426 0 l 1,4,-1
757 0 m 1,8,-1
 776 190 l 1,9,-1
 966 190 l 1,10,-1
 947 0 l 1,11,-1
 757 0 l 1,8,-1
EndSplineSet
EndChar

StartChar: perthousand
Encoding: 8240 8240 234
Width: 1406
GlyphClass: 2
Flags: W
LayerCount: 2
Fore
SplineSet
484 424 m 1,0,-1
 361 357 l 1,1,-1
 228 357 l 1,2,-1
 119 424 l 1,3,-1
 142 643 l 1,4,-1
 265 710 l 1,5,-1
 398 710 l 1,6,-1
 507 643 l 1,7,-1
 484 424 l 1,0,-1
258 599 m 1,8,-1
 245 468 l 1,9,-1
 368 468 l 1,10,-1
 381 599 l 1,11,-1
 258 599 l 1,8,-1
766 710 m 1,12,-1
 896 710 l 1,13,-1
 307 -10 l 1,14,-1
 177 -10 l 1,15,-1
 766 710 l 1,12,-1
590 276 m 1,16,-1
 713 343 l 1,17,-1
 846 343 l 1,18,-1
 955 276 l 1,19,-1
 931 57 l 1,20,-1
 808 -10 l 1,21,-1
 675 -10 l 1,22,-1
 566 57 l 1,23,-1
 590 276 l 1,16,-1
815 101 m 1,24,-1
 829 232 l 1,25,-1
 706 232 l 1,26,-1
 692 101 l 1,27,-1
 815 101 l 1,24,-1
1025 276 m 1,28,-1
 1148 343 l 1,29,-1
 1281 343 l 1,30,-1
 1390 276 l 1,31,-1
 1366 57 l 1,32,-1
 1243 -10 l 1,33,-1
 1110 -10 l 1,34,-1
 1001 57 l 1,35,-1
 1025 276 l 1,28,-1
1250 101 m 1,36,-1
 1264 232 l 1,37,-1
 1141 232 l 1,38,-1
 1127 101 l 1,39,-1
 1250 101 l 1,36,-1
EndSplineSet
EndChar

StartChar: guilsinglleft
Encoding: 8249 8249 235
Width: 430
GlyphClass: 2
Flags: W
LayerCount: 2
Fore
SplineSet
359 137 m 1,0,-1
 345 0 l 1,1,-1
 104 190 l 1,2,-1
 117 312 l 1,3,-1
 397 502 l 1,4,-1
 383 365 l 1,5,-1
 208 252 l 1,6,-1
 208 251 l 1,7,-1
 359 137 l 1,0,-1
EndSplineSet
EndChar

StartChar: guilsinglright
Encoding: 8250 8250 236
Width: 430
GlyphClass: 2
Flags: W
LayerCount: 2
Fore
SplineSet
85 0 m 1,0,-1
 99 137 l 1,1,-1
 274 251 l 1,2,-1
 274 252 l 1,3,-1
 123 365 l 1,4,-1
 137 502 l 1,5,-1
 377 312 l 1,6,-1
 364 190 l 1,7,-1
 85 0 l 1,0,-1
EndSplineSet
EndChar

StartChar: fraction
Encoding: 8260 8260 237
Width: 653
GlyphClass: 2
Flags: W
LayerCount: 2
Fore
SplineSet
592 710 m 1,0,-1
 722 710 l 1,1,-1
 133 -10 l 1,2,-1
 3 -10 l 1,3,-1
 592 710 l 1,0,-1
EndSplineSet
EndChar

StartChar: Euro
Encoding: 8364 8364 238
Width: 684
GlyphClass: 2
Flags: W
LayerCount: 2
Fore
SplineSet
504 471 m 1,0,-1
 440 377 l 1,1,-1
 281 377 l 1,2,-1
 275 323 l 1,3,-1
 403 323 l 1,4,-1
 340 229 l 1,5,-1
 266 229 l 1,6,-1
 254 115 l 1,7,-1
 481 115 l 1,8,-1
 490 205 l 1,9,-1
 630 205 l 1,10,-1
 615 62 l 1,11,-1
 492 -5 l 1,12,-1
 217 -5 l 1,13,-1
 108 62 l 1,14,-1
 126 229 l 1,15,-1
 49 229 l 1,16,-1
 58 323 l 1,17,-1
 135 323 l 1,18,-1
 141 377 l 1,19,-1
 64 377 l 1,20,-1
 74 471 l 1,21,-1
 151 471 l 1,22,-1
 169 638 l 1,23,-1
 292 705 l 1,24,-1
 567 705 l 1,25,-1
 676 638 l 1,26,-1
 661 495 l 1,27,-1
 521 495 l 1,28,-1
 530 585 l 1,29,-1
 303 585 l 1,30,-1
 291 471 l 1,31,-1
 504 471 l 1,0,-1
EndSplineSet
EndChar

StartChar: trademark
Encoding: 8482 8482 239
Width: 851
GlyphClass: 2
Flags: W
LayerCount: 2
Fore
SplineSet
712 326 m 1,0,-1
 730 497 l 1,1,-1
 728 497 l 1,2,-1
 641 326 l 1,3,-1
 565 326 l 1,4,-1
 516 497 l 1,5,-1
 514 497 l 1,6,-1
 496 326 l 1,7,-1
 407 326 l 1,8,-1
 446 700 l 1,9,-1
 551 700 l 1,10,-1
 619 469 l 1,11,-1
 621 469 l 1,12,-1
 735 700 l 1,13,-1
 839 700 l 1,14,-1
 800 326 l 1,15,-1
 712 326 l 1,0,-1
312 611 m 1,16,-1
 282 326 l 1,17,-1
 192 326 l 1,18,-1
 222 611 l 1,19,-1
 129 611 l 1,20,-1
 138 700 l 1,21,-1
 413 700 l 1,22,-1
 404 611 l 1,23,-1
 312 611 l 1,16,-1
EndSplineSet
EndChar

StartChar: partialdiff
Encoding: 8706 8706 240
Width: 645
GlyphClass: 2
Flags: W
LayerCount: 2
Fore
SplineSet
481 585 m 1,0,-1
 262 585 l 1,1,-1
 275 705 l 1,2,-1
 518 705 l 1,3,-1
 627 638 l 1,4,-1
 566 62 l 1,5,-1
 443 -5 l 1,6,-1
 200 -5 l 1,7,-1
 91 62 l 1,8,-1
 121 348 l 1,9,-1
 244 415 l 1,10,-1
 392 415 l 1,11,-1
 459 374 l 1,12,-1
 481 585 l 1,0,-1
432 115 m 1,13,-1
 451 295 l 1,14,-1
 256 295 l 1,15,-1
 237 115 l 1,16,-1
 432 115 l 1,13,-1
EndSplineSet
EndChar

StartChar: minus
Encoding: 8722 8722 241
Width: 610
GlyphClass: 2
Flags: W
LayerCount: 2
Fore
SplineSet
599 327 m 1,0,-1
 585 193 l 1,1,-1
 65 193 l 1,2,-1
 79 327 l 1,3,-1
 599 327 l 1,0,-1
EndSplineSet
EndChar

StartChar: infinity
Encoding: 8734 8734 242
Width: 900
GlyphClass: 2
Flags: W
LayerCount: 2
Fore
SplineSet
266 398 m 1,0,-1
 248 223 l 1,1,-1
 403 223 l 1,2,-1
 421 398 l 1,3,-1
 266 398 l 1,0,-1
561 398 m 1,4,-1
 543 223 l 1,5,-1
 698 223 l 1,6,-1
 716 398 l 1,7,-1
 561 398 l 1,4,-1
832 170 m 1,8,-1
 709 103 l 1,9,-1
 576 103 l 1,10,-1
 467 170 l 1,11,-1
 344 103 l 1,12,-1
 211 103 l 1,13,-1
 102 170 l 1,14,-1
 132 451 l 1,15,-1
 255 518 l 1,16,-1
 388 518 l 1,17,-1
 497 451 l 1,18,-1
 620 518 l 1,19,-1
 753 518 l 1,20,-1
 862 451 l 1,21,-1
 832 170 l 1,8,-1
EndSplineSet
EndChar

StartChar: approxequal
Encoding: 8776 8776 243
Width: 732
GlyphClass: 2
Flags: W
LayerCount: 2
Fore
SplineSet
288 112 m 1,0,-1
 213 112 l 1,1,-1
 205 30 l 1,2,-1
 88 30 l 1,3,-1
 102 162 l 1,4,-1
 225 229 l 1,5,-1
 338 229 l 1,6,-1
 470 147 l 1,7,-1
 545 147 l 1,8,-1
 554 229 l 1,9,-1
 671 229 l 1,10,-1
 657 97 l 1,11,-1
 534 30 l 1,12,-1
 421 30 l 1,13,-1
 288 112 l 1,0,-1
313 348 m 1,14,-1
 238 348 l 1,15,-1
 229 266 l 1,16,-1
 112 266 l 1,17,-1
 126 398 l 1,18,-1
 249 465 l 1,19,-1
 362 465 l 1,20,-1
 495 383 l 1,21,-1
 570 383 l 1,22,-1
 578 465 l 1,23,-1
 695 465 l 1,24,-1
 681 333 l 1,25,-1
 558 266 l 1,26,-1
 445 266 l 1,27,-1
 313 348 l 1,14,-1
EndSplineSet
EndChar

StartChar: notequal
Encoding: 8800 8800 244
Width: 690
GlyphClass: 2
Flags: W
LayerCount: 2
Fore
SplineSet
649 426 m 1,0,-1
 636 302 l 1,1,-1
 472 302 l 1,2,-1
 379 198 l 1,3,-1
 625 198 l 1,4,-1
 612 74 l 1,5,-1
 269 74 l 1,6,-1
 193 -11 l 1,7,-1
 83 -11 l 1,8,-1
 159 74 l 1,9,-1
 92 74 l 1,10,-1
 105 198 l 1,11,-1
 269 198 l 1,12,-1
 362 302 l 1,13,-1
 116 302 l 1,14,-1
 129 426 l 1,15,-1
 472 426 l 1,16,-1
 548 511 l 1,17,-1
 658 511 l 1,18,-1
 582 426 l 1,19,-1
 649 426 l 1,0,-1
EndSplineSet
EndChar

StartChar: lessequal
Encoding: 8804 8804 245
Width: 690
GlyphClass: 2
Flags: W
LayerCount: 2
Fore
SplineSet
665 579 m 1,0,-1
 652 451 l 1,1,-1
 286 371 l 1,2,-1
 286 369 l 1,3,-1
 635 289 l 1,4,-1
 621 161 l 1,5,-1
 115 291 l 1,6,-1
 132 449 l 1,7,-1
 665 579 l 1,0,-1
618 124 m 1,8,-1
 605 0 l 1,9,-1
 85 0 l 1,10,-1
 98 124 l 1,11,-1
 618 124 l 1,8,-1
EndSplineSet
EndChar

StartChar: greaterequal
Encoding: 8805 8805 246
Width: 690
GlyphClass: 2
Flags: W
LayerCount: 2
Fore
SplineSet
132 451 m 1,0,-1
 145 579 l 1,1,-1
 652 449 l 1,2,-1
 635 291 l 1,3,-1
 101 161 l 1,4,-1
 115 289 l 1,5,-1
 480 369 l 1,6,-1
 480 371 l 1,7,-1
 132 451 l 1,0,-1
85 0 m 1,8,-1
 98 124 l 1,9,-1
 618 124 l 1,10,-1
 605 0 l 1,11,-1
 85 0 l 1,8,-1
EndSplineSet
EndChar

StartChar: a.alt
Encoding: 57345 57345 247
Width: 545
GlyphClass: 2
Flags: W
LayerCount: 2
Fore
SplineSet
212 197 m 1,0,-1
 203 110 l 1,1,-1
 344 110 l 1,2,-1
 353 197 l 1,3,-1
 212 197 l 1,0,-1
170 -5 m 1,4,-1
 61 62 l 1,5,-1
 79 235 l 1,6,-1
 202 302 l 1,7,-1
 364 302 l 1,8,-1
 373 383 l 1,9,-1
 145 383 l 1,10,-1
 157 500 l 1,11,-1
 406 500 l 1,12,-1
 515 433 l 1,13,-1
 469 -5 l 1,14,-1
 403 -5 l 1,15,-1
 336 36 l 1,16,-1
 261 -5 l 1,17,-1
 170 -5 l 1,4,-1
EndSplineSet
EndChar

StartChar: g.alt
Encoding: 57346 57346 248
Width: 585
GlyphClass: 2
Flags: W
LayerCount: 2
Fore
SplineSet
40 -138 m 1,0,-1
 47 -68 l 1,1,-1
 171 0 l 1,2,-1
 80 56 l 1,3,-1
 90 146 l 1,4,-1
 165 187 l 1,5,-1
 98 228 l 1,6,-1
 120 433 l 1,7,-1
 243 500 l 1,8,-1
 582 500 l 1,9,-1
 575 436 l 1,10,-1
 479 383 l 1,11,-1
 536 347 l 1,12,-1
 525 239 l 1,13,-1
 402 172 l 1,14,-1
 230 172 l 1,15,-1
 223 107 l 1,16,-1
 425 107 l 1,17,-1
 534 40 l 1,18,-1
 515 -138 l 1,19,-1
 392 -205 l 1,20,-1
 149 -205 l 1,21,-1
 40 -138 l 1,0,-1
393 0 m 1,22,-1
 192 0 l 1,23,-1
 182 -90 l 1,24,-1
 383 -90 l 1,25,-1
 393 0 l 1,22,-1
252 388 m 1,26,-1
 241 284 l 1,27,-1
 392 284 l 1,28,-1
 403 388 l 1,29,-1
 252 388 l 1,26,-1
EndSplineSet
EndChar

StartChar: l.alt
Encoding: 57347 57347 249
Width: 287
GlyphClass: 2
Flags: W
LayerCount: 2
Fore
SplineSet
212 0 m 1,0,-1
 75 0 l 1,1,-1
 151 730 l 1,2,-1
 288 730 l 1,3,-1
 212 0 l 1,0,-1
EndSplineSet
EndChar

StartChar: dotlessj
Encoding: 63166 63166 250
Width: 287
GlyphClass: 2
Flags: W
LayerCount: 2
Fore
SplineSet
264 500 m 1,0,-1
 198 -133 l 1,1,-1
 74 -200 l 1,2,-1
 -46 -200 l 1,3,-1
 -33 -83 l 1,4,-1
 66 -83 l 1,5,-1
 127 500 l 1,6,-1
 264 500 l 1,0,-1
EndSplineSet
EndChar

StartChar: commaaccent
Encoding: 63171 63171 251
Width: 352
GlyphClass: 2
Flags: W
LayerCount: 2
Fore
SplineSet
100 -367 m 1,0,-1
 132 -55 l 1,1,-1
 284 -55 l 1,2,-1
 277 -121 l 1,3,-1
 166 -367 l 1,4,-1
 100 -367 l 1,0,-1
EndSplineSet
EndChar

StartChar: madslug
Encoding: 63488 63488 252
Width: 896
GlyphClass: 2
Flags: W
LayerCount: 2
Fore
SplineSet
650 51 m 1,0,1
 554 -9 554 -9 447 -9 c 0,2,3
 295 -9 295 -9 187.5 99 c 128,-1,4
 80 207 80 207 80 361 c 0,5,6
 80 458 80 458 123.5 534.5 c 128,-1,7
 167 611 167 611 215 611 c 128,-1,8
 263 611 263 611 263 560 c 0,9,10
 263 527 263 527 233.5 397 c 128,-1,11
 204 267 204 267 204 265 c 0,12,13
 204 254 204 254 222 254 c 128,-1,14
 240 254 240 254 278.5 263 c 128,-1,15
 317 272 317 272 321 280 c 0,16,17
 321 282 321 282 336 348 c 128,-1,18
 351 414 351 414 360 456 c 0,19,20
 380 557 380 557 380 592.5 c 128,-1,21
 380 628 380 628 348 648.5 c 128,-1,22
 316 669 316 669 267 669 c 1,23,-1
 248 667 l 1,24,-1
 246 670 l 1,25,26
 340 730 340 730 447 730 c 0,27,28
 601 730 601 730 708.5 622 c 128,-1,29
 816 514 816 514 816 360 c 0,30,31
 816 263 816 263 772.5 186.5 c 128,-1,32
 729 110 729 110 681 110 c 128,-1,33
 633 110 633 110 633 161 c 0,34,35
 633 194 633 194 662.5 324 c 128,-1,36
 692 454 692 454 692 455 c 0,37,38
 692 467 692 467 674 467 c 128,-1,39
 656 467 656 467 617.5 458 c 128,-1,40
 579 449 579 449 575 441 c 0,41,42
 575 439 575 439 560 373 c 128,-1,43
 545 307 545 307 536 265 c 0,44,45
 516 164 516 164 516 128.5 c 128,-1,46
 516 93 516 93 548 72.5 c 128,-1,47
 580 52 580 52 629 52 c 1,48,-1
 648 53 l 1,49,-1
 650 51 l 1,0,1
476 234 m 1,50,51
 489 287 489 287 511 390.5 c 128,-1,52
 533 494 533 494 533 502.5 c 128,-1,53
 533 511 533 511 515.5 511 c 128,-1,54
 498 511 498 511 465.5 504 c 128,-1,55
 433 497 433 497 420 487 c 1,56,57
 407 434 407 434 385 330.5 c 128,-1,58
 363 227 363 227 363 218 c 128,-1,59
 363 209 363 209 380 209 c 128,-1,60
 397 209 397 209 430 216.5 c 128,-1,61
 463 224 463 224 476 234 c 1,50,51
EndSplineSet
EndChar

StartChar: apple
Encoding: 63743 63743 253
Width: 858
GlyphClass: 2
Flags: W
LayerCount: 2
Fore
SplineSet
154 107 m 1,0,1
 80 235 80 235 80 351 c 128,-1,2
 80 467 80 467 133.5 542.5 c 128,-1,3
 187 618 187 618 279 618 c 0,4,5
 314 618 314 618 367 603 c 128,-1,6
 420 588 420 588 438.5 588 c 128,-1,7
 457 588 457 588 508 605 c 128,-1,8
 559 622 559 622 595 622 c 0,9,10
 655 622 655 622 702 590 c 1,11,12
 732 567 732 567 754 540 c 1,13,14
 709 501 709 501 686.5 465 c 128,-1,15
 664 429 664 429 664 371.5 c 128,-1,16
 664 314 664 314 698 265 c 128,-1,17
 732 216 732 216 778 202 c 1,18,19
 757 138 757 138 716 77 c 0,20,21
 651 -21 651 -21 587 -21 c 0,22,23
 561 -21 561 -21 518 -5 c 128,-1,24
 475 11 475 11 443.5 11 c 128,-1,25
 412 11 412 11 370 -6 c 128,-1,26
 328 -23 328 -23 304 -23 c 0,27,28
 227 -23 227 -23 154 107 c 1,0,1
589 790 m 0,29,30
 589 713 589 713 528 652 c 0,31,32
 504 628 504 628 484.5 620 c 128,-1,33
 465 612 465 612 422 608 c 1,34,35
 424 773 424 773 586 811 c 1,36,37
 589 802 589 802 589 790 c 0,29,30
EndSplineSet
EndChar

StartChar: fi
Encoding: 64257 64257 254
Width: 696
GlyphClass: 2
Flags: W
LayerCount: 2
Fore
SplineSet
75 383 m 1,0,-1
 87 500 l 1,1,-1
 179 500 l 1,2,-1
 196 663 l 1,3,-1
 319 730 l 1,4,-1
 702 730 l 1,5,-1
 690 613 l 1,6,-1
 328 613 l 1,7,-1
 316 500 l 1,8,-1
 456 500 l 1,9,-1
 444 383 l 1,10,-1
 304 383 l 1,11,-1
 264 0 l 1,12,-1
 127 0 l 1,13,-1
 167 383 l 1,14,-1
 75 383 l 1,0,-1
673 500 m 1,15,-1
 621 0 l 1,16,-1
 484 0 l 1,17,-1
 536 500 l 1,18,-1
 673 500 l 1,15,-1
EndSplineSet
EndChar

StartChar: fl
Encoding: 64258 64258 255
Width: 736
GlyphClass: 2
Flags: W
LayerCount: 2
Fore
SplineSet
600 0 m 1,0,-1
 491 67 l 1,1,-1
 548 613 l 1,2,-1
 328 613 l 1,3,-1
 316 500 l 1,4,-1
 456 500 l 1,5,-1
 444 383 l 1,6,-1
 304 383 l 1,7,-1
 264 0 l 1,8,-1
 127 0 l 1,9,-1
 167 383 l 1,10,-1
 75 383 l 1,11,-1
 87 500 l 1,12,-1
 179 500 l 1,13,-1
 196 663 l 1,14,-1
 319 730 l 1,15,-1
 697 730 l 1,16,-1
 633 117 l 1,17,-1
 733 117 l 1,18,-1
 721 0 l 1,19,-1
 600 0 l 1,0,-1
EndSplineSet
EndChar

StartChar: ffi
Encoding: 64259 64259 256
Width: 1105
GlyphClass: 2
Flags: W
LayerCount: 2
Fore
SplineSet
304 383 m 1,0,-1
 264 0 l 1,1,-1
 127 0 l 1,2,-1
 167 383 l 1,3,-1
 75 383 l 1,4,-1
 87 500 l 1,5,-1
 179 500 l 1,6,-1
 196 663 l 1,7,-1
 319 730 l 1,8,-1
 500 730 l 1,9,-1
 488 613 l 1,10,-1
 328 613 l 1,11,-1
 316 500 l 1,12,-1
 568 500 l 1,13,-1
 585 663 l 1,14,-1
 708 730 l 1,15,-1
 1111 730 l 1,16,-1
 1099 613 l 1,17,-1
 717 613 l 1,18,-1
 705 500 l 1,19,-1
 865 500 l 1,20,-1
 853 383 l 1,21,-1
 693 383 l 1,22,-1
 653 0 l 1,23,-1
 516 0 l 1,24,-1
 556 383 l 1,25,-1
 304 383 l 1,0,-1
1082 500 m 1,26,-1
 1030 0 l 1,27,-1
 893 0 l 1,28,-1
 945 500 l 1,29,-1
 1082 500 l 1,26,-1
EndSplineSet
EndChar

StartChar: ffl
Encoding: 64260 64260 257
Width: 1145
GlyphClass: 2
Flags: W
LayerCount: 2
Fore
SplineSet
1009 0 m 1,0,-1
 900 67 l 1,1,-1
 957 613 l 1,2,-1
 737 613 l 1,3,-1
 725 500 l 1,4,-1
 855 500 l 1,5,-1
 843 383 l 1,6,-1
 713 383 l 1,7,-1
 673 0 l 1,8,-1
 536 0 l 1,9,-1
 576 383 l 1,10,-1
 304 383 l 1,11,-1
 264 0 l 1,12,-1
 127 0 l 1,13,-1
 167 383 l 1,14,-1
 75 383 l 1,15,-1
 87 500 l 1,16,-1
 179 500 l 1,17,-1
 196 663 l 1,18,-1
 319 730 l 1,19,-1
 510 730 l 1,20,-1
 498 613 l 1,21,-1
 328 613 l 1,22,-1
 316 500 l 1,23,-1
 588 500 l 1,24,-1
 605 663 l 1,25,-1
 728 730 l 1,26,-1
 1106 730 l 1,27,-1
 1042 117 l 1,28,-1
 1142 117 l 1,29,-1
 1130 0 l 1,30,-1
 1009 0 l 1,0,-1
EndSplineSet
EndChar

StartChar: st
Encoding: 64262 64262 258
Width: 940
GlyphClass: 2
Flags: W
LayerCount: 2
Fore
SplineSet
496 246 m 1,0,-1
 478 67 l 1,1,-1
 355 0 l 1,2,-1
 75 0 l 1,3,-1
 87 117 l 1,4,-1
 346 117 l 1,5,-1
 354 194 l 1,6,-1
 211 194 l 1,7,-1
 102 261 l 1,8,-1
 120 433 l 1,9,-1
 243 500 l 1,10,-1
 690 500 l 1,11,-1
 699 584 l 1,12,-1
 844 663 l 1,13,-1
 827 500 l 1,14,-1
 937 500 l 1,15,-1
 925 383 l 1,16,-1
 815 383 l 1,17,-1
 787 117 l 1,18,-1
 897 117 l 1,19,-1
 885 0 l 1,20,-1
 754 0 l 1,21,-1
 645 67 l 1,22,-1
 678 383 l 1,23,-1
 252 383 l 1,24,-1
 244 313 l 1,25,-1
 387 313 l 1,26,-1
 496 246 l 1,0,-1
EndSplineSet
EndChar

StartChar: fj
Encoding: 64263 64263 259
Width: 696
GlyphClass: 2
Flags: W
LayerCount: 2
Fore
SplineSet
673 500 m 1,0,-1
 607 -133 l 1,1,-1
 483 -200 l 1,2,-1
 362 -200 l 1,3,-1
 375 -83 l 1,4,-1
 475 -83 l 1,5,-1
 536 500 l 1,6,-1
 673 500 l 1,0,-1
75 383 m 1,7,-1
 87 500 l 1,8,-1
 179 500 l 1,9,-1
 196 663 l 1,10,-1
 319 730 l 1,11,-1
 702 730 l 1,12,-1
 690 613 l 1,13,-1
 328 613 l 1,14,-1
 316 500 l 1,15,-1
 426 500 l 1,16,-1
 414 383 l 1,17,-1
 304 383 l 1,18,-1
 264 0 l 1,19,-1
 127 0 l 1,20,-1
 167 383 l 1,21,-1
 75 383 l 1,7,-1
EndSplineSet
EndChar

StartChar: ct
Encoding: 64264 64264 260
Width: 908
GlyphClass: 2
Flags: W
LayerCount: 2
Fore
SplineSet
252 383 m 1,0,-1
 224 117 l 1,1,-1
 472 117 l 1,2,-1
 460 0 l 1,3,-1
 191 0 l 1,4,-1
 82 67 l 1,5,-1
 120 433 l 1,6,-1
 243 500 l 1,7,-1
 658 500 l 1,8,-1
 667 584 l 1,9,-1
 812 663 l 1,10,-1
 795 500 l 1,11,-1
 905 500 l 1,12,-1
 893 383 l 1,13,-1
 783 383 l 1,14,-1
 755 117 l 1,15,-1
 865 117 l 1,16,-1
 853 0 l 1,17,-1
 722 0 l 1,18,-1
 613 67 l 1,19,-1
 646 383 l 1,20,-1
 252 383 l 1,0,-1
EndSplineSet
EndChar

StartChar: grave.cap
Encoding: 65539 -1 261
Width: 500
GlyphClass: 2
Flags: W
LayerCount: 2
Fore
SplineSet
410 908 m 1,0,-1
 491 780 l 1,1,-1
 371 780 l 1,2,-1
 240 908 l 1,3,-1
 410 908 l 1,0,-1
EndSplineSet
EndChar

StartChar: acute.cap
Encoding: 65540 -1 262
Width: 500
GlyphClass: 2
Flags: W
LayerCount: 2
Fore
SplineSet
227 780 m 1,0,-1
 334 908 l 1,1,-1
 504 908 l 1,2,-1
 347 780 l 1,3,-1
 227 780 l 1,0,-1
EndSplineSet
EndChar

StartChar: caron.cap
Encoding: 65541 -1 263
Width: 531
GlyphClass: 2
Flags: W
LayerCount: 2
Fore
SplineSet
424 780 m 1,0,-1
 234 780 l 1,1,-1
 148 928 l 1,2,-1
 263 928 l 1,3,-1
 336 848 l 1,4,-1
 424 928 l 1,5,-1
 539 928 l 1,6,-1
 424 780 l 1,0,-1
EndSplineSet
EndChar

StartChar: circumflex.cap
Encoding: 65542 -1 264
Width: 531
GlyphClass: 2
Flags: W
LayerCount: 2
Fore
SplineSet
247 928 m 1,0,-1
 437 928 l 1,1,-1
 523 780 l 1,2,-1
 408 780 l 1,3,-1
 335 860 l 1,4,-1
 247 780 l 1,5,-1
 132 780 l 1,6,-1
 247 928 l 1,0,-1
EndSplineSet
EndChar

StartChar: ring.cap
Encoding: 65543 -1 265
Width: 529
GlyphClass: 2
Flags: W
LayerCount: 2
Fore
SplineSet
491 807 m 1,0,-1
 404 760 l 1,1,-1
 243 760 l 1,2,-1
 166 807 l 1,3,-1
 188 1016 l 1,4,-1
 275 1063 l 1,5,-1
 436 1063 l 1,6,-1
 513 1016 l 1,7,-1
 491 807 l 1,0,-1
288 968 m 1,8,-1
 276 855 l 1,9,-1
 391 855 l 1,10,-1
 403 968 l 1,11,-1
 288 968 l 1,8,-1
EndSplineSet
EndChar

StartChar: dieresis.cap
Encoding: 65544 -1 266
Width: 544
GlyphClass: 2
Flags: W
LayerCount: 2
Fore
SplineSet
142 785 m 1,0,-1
 156 920 l 1,1,-1
 291 920 l 1,2,-1
 277 785 l 1,3,-1
 142 785 l 1,0,-1
381 785 m 1,4,-1
 395 920 l 1,5,-1
 530 920 l 1,6,-1
 516 785 l 1,7,-1
 381 785 l 1,4,-1
EndSplineSet
EndChar

StartChar: tilde.cap
Encoding: 65545 -1 267
Width: 506
GlyphClass: 2
Flags: W
LayerCount: 2
Fore
SplineSet
242 857 m 1,0,-1
 238 857 l 1,1,-1
 229 775 l 1,2,-1
 131 775 l 1,3,-1
 144 899 l 1,4,-1
 244 954 l 1,5,-1
 272 954 l 1,6,-1
 405 872 l 1,7,-1
 409 872 l 1,8,-1
 418 954 l 1,9,-1
 516 954 l 1,10,-1
 503 830 l 1,11,-1
 403 775 l 1,12,-1
 375 775 l 1,13,-1
 242 857 l 1,0,-1
EndSplineSet
EndChar
